<?xml version="1.0" standalone="no"?>
<!DOCTYPE svg PUBLIC "-//W3C//DTD SVG 1.1//EN" "http://www.w3.org/Graphics/SVG/1.1/DTD/svg11.dtd" >
<svg xmlns="http://www.w3.org/2000/svg" xmlns:xlink="http://www.w3.org/1999/xlink" version="1.1" viewBox="-11 0 764 1000">
   <path fill="currentColor"
d="M465 457h-246c-10 25 -65 177 -70 198c-1 7 -3 17 -3 22c0 14 12 22 34 22h47c7 0 10 2 10 7v23c0 7 -3 9 -8 9c-14 0 -55 -3 -114 -3c-73 0 -95 3 -109 3c-5 0 -7 -2 -7 -8v-24c0 -5 4 -7 8 -7h35c30 0 44 -14 58 -46c7 -16 80 -201 109 -283c7 -20 88 -235 97 -262
c3 -10 8 -23 1 -34c-3 -4 -7 -9 -7 -13c0 -3 2 -7 9 -9c28 -6 72 -36 83 -50c5 -5 8 -9 13 -9c6 0 8 6 11 17c19 63 97 287 116 351c23 78 88 264 102 293c17 33 43 45 68 45h33c6 0 8 3 8 7v25c0 5 -3 7 -10 7c-18 0 -39 -3 -120 -3c-83 0 -118 3 -141 3c-5 0 -8 -3 -8 -9
v-23c0 -6 3 -7 9 -7h25c28 0 37 -10 30 -38c-8 -36 -49 -164 -63 -204zM232 421h221c-9 -30 -90 -280 -95 -295c-3 -7 -5 -14 -8 -14c-4 0 -8 7 -11 15c-5 13 -100 269 -107 294z" />
</svg>
