<?xml version="1.0" standalone="no"?>
<!DOCTYPE svg PUBLIC "-//W3C//DTD SVG 1.1//EN" "http://www.w3.org/Graphics/SVG/1.1/DTD/svg11.dtd" >
<svg xmlns="http://www.w3.org/2000/svg" xmlns:xlink="http://www.w3.org/1999/xlink" version="1.1" viewBox="-10 0 1325 2048">
   <path fill="currentColor"
d="M1276 1472h-455v-59c128 -15 143 -28 119 -101l-104 -286h-416c-28 77 -52 154 -80 232c-43 127 -24 142 119 155v59h-418v-59c122 -17 148 -26 215 -197l388 -986l58 -19c115 316 249 695 367 1016c54 158 82 174 207 186v59zM808 939l-171 -496h-4
c-61 167 -121 335 -180 496h355z" />
</svg>
