<?xml version="1.0" standalone="no"?>
<!DOCTYPE svg PUBLIC "-//W3C//DTD SVG 1.1//EN" "http://www.w3.org/Graphics/SVG/1.1/DTD/svg11.dtd" >
<svg xmlns="http://www.w3.org/2000/svg" xmlns:xlink="http://www.w3.org/1999/xlink" version="1.1" viewBox="-10 0 725 1000">
   <path fill="currentColor"
d="M696 727h-257v-29c65 -9 74 -18 60 -57c-13 -40 -32 -93 -54 -154h-220c-16 47 -30 88 -43 129c-23 63 -15 74 64 82v29h-226v-29c66 -10 80 -17 117 -106l213 -532l34 -9c65 177 133 364 199 542c32 88 46 98 113 105v29zM429 444l-89 -256h-2c-34 85 -65 173 -95 256
h186z" />
</svg>
