<?xml version="1.0" standalone="no"?>
<!DOCTYPE svg PUBLIC "-//W3C//DTD SVG 1.1//EN" "http://www.w3.org/Graphics/SVG/1.1/DTD/svg11.dtd" >
<svg xmlns="http://www.w3.org/2000/svg" xmlns:xlink="http://www.w3.org/1999/xlink" version="1.1" viewBox="-10 0 1063 2048">
   <path fill="currentColor"
d="M1025 1368h-378v-42c93 -13 106 -26 86 -85c-21 -58 -48 -131 -80 -215h-321c-25 67 -45 124 -64 182c-32 89 -20 106 93 118v42h-330v-42c97 -15 118 -25 171 -155l314 -763l52 -13c96 259 192 519 291 776c48 129 69 145 166 155v42zM631 960l-131 -364h-3
c-48 121 -95 246 -140 364h274z" />
</svg>
