<?xml version="1.0" standalone="no"?>
<!DOCTYPE svg PUBLIC "-//W3C//DTD SVG 1.1//EN" "http://www.w3.org/Graphics/SVG/1.1/DTD/svg11.dtd" >
<svg xmlns="http://www.w3.org/2000/svg" xmlns:xlink="http://www.w3.org/1999/xlink" version="1.1" viewBox="-36 0 689 1000">
   <path fill="currentColor"
d="M451 629l-44 -136c-7 -22 -11 -25 -41 -25h-151c-25 0 -31 3 -38 24l-35 105c-15 45 -22 72 -22 83c0 12 5 18 29 20l33 3c7 5 7 21 -2 25c-26 -2 -57 -2 -104 -3c-33 0 -69 2 -96 3c-6 -4 -8 -20 -2 -25l33 -3c24 -2 46 -13 60 -49c18 -46 46 -111 88 -223l102 -270
c14 -36 20 -55 17 -71c24 -7 41 -25 52 -38c6 0 13 2 15 9c13 44 29 90 44 134l137 402c29 86 42 101 85 106l27 3c7 5 5 21 0 25c-41 -2 -76 -3 -121 -3c-48 0 -86 2 -115 3c-8 -4 -9 -20 -2 -25l29 -3c21 -2 35 -8 35 -18c0 -11 -5 -29 -13 -53zM272 230l-63 174
c-8 23 -7 24 21 24h123c29 0 31 -4 22 -31l-54 -163c-8 -24 -17 -51 -23 -63h-2c-3 5 -13 29 -24 59z" />
</svg>
