<?xml version="1.0" standalone="no"?>
<!DOCTYPE svg PUBLIC "-//W3C//DTD SVG 1.1//EN" "http://www.w3.org/Graphics/SVG/1.1/DTD/svg11.dtd" >
<svg xmlns="http://www.w3.org/2000/svg" xmlns:xlink="http://www.w3.org/1999/xlink" version="1.1" viewBox="-10 0 1577 2048">
   <path fill="currentColor"
d="M967 273l-104 118l164 436l40 -22l-148 -394l106 -122l26 11l-101 117l140 373q12 -9 14 -11l33 -28q30 -24 38 -34q26 114 80 204q-29 -2 -42 -2q-95 0 -139 30l181 491l150 116h-505l138 -116l-111 -292q-110 111 -169 211l-23 -6q59 -98 176 -219l8 -10l-19 -44
q-119 99 -197 230l-18 -29q-52 -83 -133 -189l-10 -12q-77 171 -77 278q0 63 21.5 106.5t103.5 145.5q7 9 22 28h-540l-20 -27h509l-17 -21q-66 -80 -86.5 -124.5t-20.5 -104.5q0 -102 83 -304l-44 -46q-13 32 -33 94l-33 102q-27 82 -27 136q0 56 19 93t80 101q6 6 18 19
h-500q143 -74 226.5 -199t165.5 -386l4 -14q-53 -45 -153 -55q55 -82 85 -171q14 13 17 16l45 42q23 22 55 45l18 -44l-12 -10q-50 -44 -84 -71l-9 -7l16 -22q53 35 102 81l136 -374l-106 -114h461zM720 594l-110 290q9 10 10 12l41 46q33 36 84 112l10 15q43 -54 102 -107z
M675 478l-159 420q76 78 131 154l46 64q1 1 10 13q9 -9 10 -11l14 -17q3 -4 11 -13q-70 -108 -163 -195l128 -338zM1263 765q22 90 110 247q-22 -3 -25 -3l-81 -7q-55 -5 -80 -5q-4 0 -20 1l167 443l223 197h-579l-19 -27h531l-180 -159l-178 -471q34 -9 78 -9q54 0 120 9
l-12 -22q-64 -118 -86 -213z" />
</svg>
