<?xml version="1.0" standalone="no"?>
<!DOCTYPE svg PUBLIC "-//W3C//DTD SVG 1.1//EN" "http://www.w3.org/Graphics/SVG/1.1/DTD/svg11.dtd" >
<svg xmlns="http://www.w3.org/2000/svg" xmlns:xlink="http://www.w3.org/1999/xlink" version="1.1" viewBox="-30 0 1481 2048">
   <path fill="currentColor"
d="M1441 1638h-657v-23q89 -8 124 -30q62 -39 62 -108q0 -41 -28 -110l-17 -42l-96 -236h-440l-52 138l-25 62q-45 110 -45 173q0 37 16.5 69t44.5 52q39 27 100 32v23h-448v-23q53 -3 93 -26t78 -74q32 -41 62.5 -105.5t80.5 -193.5l366 -943h57l435 1051q49 119 78 170
t63 77q24 18 55 27.5t93 16.5v23zM813 1048l-210 -518l-198 518h408z" />
</svg>
