<?xml version="1.0" standalone="no"?>
<!DOCTYPE svg PUBLIC "-//W3C//DTD SVG 1.1//EN" "http://www.w3.org/Graphics/SVG/1.1/DTD/svg11.dtd" >
<svg xmlns="http://www.w3.org/2000/svg" xmlns:xlink="http://www.w3.org/1999/xlink" version="1.1" viewBox="-10 0 1418 2048">
   <path fill="currentColor"
d="M658 303h46q112 229 309 783q127 355 174 435.5t151 89.5q33 3 33 22q0 14 -17 14l-14 -1q-92 -8 -234 -8q-218 0 -280 7q-31 0 -31 -18q0 -13 23 -16q85 -8 117.5 -29t32.5 -66q0 -43 -61 -215l-59 -172q-52 0 -465 6q-104 277 -104 349q0 61 51.5 90.5t101.5 32.5
q37 3 37 23q0 8 -12 15q-160 -7 -193 -7q-168 0 -226 4q-32 0 -32 -18q0 -16 28 -20q115 -15 176 -156t190 -507q118 -333 258 -638zM618 521q-93 190 -217 552q103 -5 148 -5l281 5q-37 -104 -104 -276q-82 -205 -108 -276z" />
</svg>
