<?xml version="1.0" standalone="no"?>
<!DOCTYPE svg PUBLIC "-//W3C//DTD SVG 1.1//EN" "http://www.w3.org/Graphics/SVG/1.1/DTD/svg11.dtd" >
<svg xmlns="http://www.w3.org/2000/svg" xmlns:xlink="http://www.w3.org/1999/xlink" version="1.1" viewBox="-10 0 1603 2048">
   <path fill="currentColor"
d="M1049 1165h-578l-68 161q-67 160 -67 196q0 23 12.5 33t63.5 16l96 11v63q-96 -7 -216 -7q-144 0 -253 7v-63l30 -1q70 -2 90.5 -14.5t43.5 -61.5q71 -144 145 -311l275 -623q110 -248 150 -360h68l506 1177q51 120 68 144.5t39 35t99 14.5v63q-130 -7 -248 -7
q-110 0 -293 7v-63l99 -6q53 -4 63 -11q15 -11 15 -28q0 -18 -30 -94zM508 1083h504l-252 -602z" />
</svg>
