<?xml version="1.0" standalone="no"?>
<!DOCTYPE svg PUBLIC "-//W3C//DTD SVG 1.1//EN" "http://www.w3.org/Graphics/SVG/1.1/DTD/svg11.dtd" >
<svg xmlns="http://www.w3.org/2000/svg" xmlns:xlink="http://www.w3.org/1999/xlink" version="1.1" viewBox="-10 0 1408 2048">
   <path fill="currentColor"
d="M616 243h165l433 1166q32 88 64.5 116.5t87.5 28.5h22v84h-497v-84q24 -2 47 -2q48 0 63 -10q29 -19 29 -48q0 -21 -28 -103l-92 -270h-506l-108 302q-17 47 -17 65q0 20 10.5 35t28.5 22.5t58 7.5q27 0 44 1v84h-417v-84q58 0 83.5 -11.5t44.5 -37t50 -107.5zM441 1023
h431l-216 -600z" />
</svg>
