<?xml version="1.0" standalone="no"?>
<!DOCTYPE svg PUBLIC "-//W3C//DTD SVG 1.1//EN" "http://www.w3.org/Graphics/SVG/1.1/DTD/svg11.dtd" >
<svg xmlns="http://www.w3.org/2000/svg" xmlns:xlink="http://www.w3.org/1999/xlink" version="1.1" viewBox="-83 0 915 1000">
   <path fill="currentColor"
d="M557 335l136 -228l-2 -2l-289 239l2 2zM604 453l-63 123c0 10 8 16 18 16c18 0 29 -11 88 -55l18 26c-48 48 -133 129 -204 129c-36 0 -51 -28 -51 -60c0 -8 -15 -7 73 -169l-218 7l-205 204c-24 24 -62 66 -98 66c-15 0 -35 -3 -35 -22c0 -33 77 -129 171 -162l78 -86
c-64 2 -97 6 -97 -20c0 -19 73 -103 126 -120c39 -13 93 -21 93 -7c0 18 -73 9 -73 27c0 7 9 9 14 9c16 -1 57 -3 61 -3l224 -186c98 -81 218 -172 263 -172c21 0 35 25 35 43c0 21 -21 55 -31 73l-124 217c74 0 29 -10 92 4c-29 34 -53 74 -75 114z" />
</svg>
