<?xml version="1.0" standalone="no"?>
<!DOCTYPE svg PUBLIC "-//W3C//DTD SVG 1.1//EN" "http://www.w3.org/Graphics/SVG/1.1/DTD/svg11.dtd" >
<svg xmlns="http://www.w3.org/2000/svg" xmlns:xlink="http://www.w3.org/1999/xlink" version="1.1" viewBox="-10 0 1361 2048">
   <path fill="currentColor"
d="M1341 1626q0 12 -24 12q-19 0 -55.5 -3t-55.5 -3t-57 3t-57 3q-28 0 -71.5 -151.5t-88.5 -153.5q-37 -2 -193 -2h-158q-165 0 -188 2q-36 3 -76.5 154t-62.5 151h-225q-20 0 -20 -14q0 -10 14 -45l245 -670q31 -81 188 -467q28 -64 76 -193q12 -38 26 -38q19 0 56 5t56 5
q18 0 54.5 -5.5t53.5 -5.5q9 0 25 37q24 56 237 603q301 769 301 776zM875 1074q0 -29 -90 -260q-87 -224 -123 -294q-207 528 -207 553q0 34 76 40q4 1 98 1h103q143 0 143 -40z" />
</svg>
