<?xml version="1.0" standalone="no"?>
<!DOCTYPE svg PUBLIC "-//W3C//DTD SVG 1.1//EN" "http://www.w3.org/Graphics/SVG/1.1/DTD/svg11.dtd" >
<svg xmlns="http://www.w3.org/2000/svg" xmlns:xlink="http://www.w3.org/1999/xlink" version="1.1" viewBox="-10 0 1589 2048">
   <path fill="currentColor"
d="M750 206h63q135 347 332 787l233 509q16 27 35 40q13 9 147 48v59q-182 -11 -268 -11q-88 0 -300 11v-59q121 -25 141 -40t20 -35q0 -21 -21 -71l-100 -244q-213 -2 -310 -2l-275 2l-104 253q-26 61 -26 76q0 13 12.5 21.5t116.5 30.5q11 3 31 9v59q-171 -11 -241 -11
q-89 0 -228 11v-59q91 -20 125 -45q25 -19 52 -64q57 -99 290 -637zM486 1100q139 4 199 4q18 0 307 -4l-253 -600z" />
</svg>
