<?xml version="1.0" standalone="no"?>
<!DOCTYPE svg PUBLIC "-//W3C//DTD SVG 1.1//EN" "http://www.w3.org/Graphics/SVG/1.1/DTD/svg11.dtd" >
<svg xmlns="http://www.w3.org/2000/svg" xmlns:xlink="http://www.w3.org/1999/xlink" version="1.1" viewBox="-10 0 1195 2048">
   <path fill="currentColor"
d="M1141 1475q8 22 8.5 35.5t-7.5 20.5t-26.5 9t-49.5 2t-49.5 -1.5t-28 -5t-14 -9.5t-8.5 -15l-111 -315h-538l-106 311q-3 9 -8 15.5t-14.5 11t-27 6.5t-45.5 2q-29 0 -47.5 -2.5t-26 -9.5t-7 -20.5t8.5 -35.5l434 -1202q4 -11 10.5 -18t19 -11t32 -5.5t49.5 -1.5
q32 0 53 1.5t34 5.5t20 11.5t11 18.5zM584 414h-1l-223 645h450z" />
</svg>
