<?xml version="1.0" standalone="no"?>
<!DOCTYPE svg PUBLIC "-//W3C//DTD SVG 1.1//EN" "http://www.w3.org/Graphics/SVG/1.1/DTD/svg11.dtd" >
<svg xmlns="http://www.w3.org/2000/svg" xmlns:xlink="http://www.w3.org/1999/xlink" version="1.1" viewBox="-10 0 1689 2048">
   <path fill="currentColor"
d="M784 356l519 1243h67l-553 -1327zM768 440q-27 53 -71.5 155t-80.5 191t-75 189.5t-52 132.5q59 8 137.5 11t149.5 3q175 0 287 -14q-38 -113 -129 -321.5t-166 -346.5zM874 159l433 1033q84 202 196 401l166 35v10h-706v-10l272 -35q-15 -99 -55.5 -215.5t-89.5 -202.5
h-627q-40 101 -64.5 166t-47 135t-29.5 117l262 35v10h-559v-10l184 -35q67 -116 123 -256l463 -1178h79z" />
</svg>
