<?xml version="1.0" standalone="no"?>
<!DOCTYPE svg PUBLIC "-//W3C//DTD SVG 1.1//EN" "http://www.w3.org/Graphics/SVG/1.1/DTD/svg11.dtd" >
<svg xmlns="http://www.w3.org/2000/svg" xmlns:xlink="http://www.w3.org/1999/xlink" version="1.1" viewBox="-10 0 1040 2048">
   <path fill="currentColor"
d="M983 1071l-2 8l-8 4h-6v-6l2 -8l4 -2zM999 1661l-8 10l-16 6l-6 -10l-11 -15l-14 -28l-20 -27l-29 -51l-21 -49l-8 -35l-14 -19l-25 -71l-20 -25l-16 -37l-23 -37l-18 -16l-43 -47l-9 -27l-34 -24l-43 -8l-46 6l-47 8l-34 14l-37 33l-35 18l-8 17l-27 20l-57 33l-11 12
l-8 45v29l-14 16v35l-6 37l6 60l-6 41l-12 43l-19 34l-22 27l-37 33l-35 6l-33 4l-10 -8h-19l-14 -17l-10 -8v-20l-10 -15v-41l10 -26l-2 -23l6 -14l12 -6v-19l19 -10l8 -18l12 -25l17 -8l16 -37l6 -41l10 -6l-4 -27l8 -41v-26l-18 -39l-12 -35l-4 -39l-2 -27l6 -8l-4 -14
v-8l30 -37v-12l17 -19l22 -35l27 -39l6 -28l2 -21l-2 -16l10 -51l8 -49l17 -62l4 -35l8 -16l-2 -53l-4 -47l4 -45l16 -37l15 -29l18 -14l6 -27l13 -18l6 -17l-6 -12l4 -27l-15 -32l4 -33l-12 -15l6 -26h13l22 -17l12 -2l9 -16l32 -4l27 12l23 35l10 6l16 31l19 37l8 35
l18 40l23 31l2 17l16 18l10 21l19 26l-2 25l18 37l2 16l11 20l10 35l16 29l6 49l9 35l12 49v18l10 27l14 47l13 43l4 35l10 25l27 18l32 10l39 -2h37l37 8l6 11l8 10l-8 6l-6 10l-16 17l-21 2l-8 10l-31 6l-35 16l-14 13v24l6 29l13 29l16 28l14 41l10 25l13 39l14 35l21 43
l14 36l8 56l10 6l13 29l14 28v17l10 10zM1001 1734q-1 2 -10 4l-6 -2l-2 -6l6 -6l10 2zM197 981l-2 10l-9 6l-12 -8v-10l10 -11l11 -4l2 6v11zM70 1484l-9 4l-10 -4v-10l6 -4l11 2l2 6v6zM106 1751l-2 8l-14 -2l-6 -15l10 -2h12v11zM625 1013l-9 -22l-20 -37l-4 -35l-10 -16
l-7 -21l-12 -20l2 -53l-26 -35l8 -15l-10 -24l-13 -72l-16 -33l-2 -26l-23 -29l-8 -16l-20 -43l-41 41l4 26l-15 23v24l-4 13l-8 41l-4 36v11l-10 14v29l-4 57v27l-11 24l7 25l-11 31l17 24l47 21l49 18l41 23l23 16l40 8l27 -6l8 -6zM528 1017l-12 3l-10 -7l2 -8h10l6 -4
l4 6v10z" />
</svg>
