<?xml version="1.0" standalone="no"?>
<!DOCTYPE svg PUBLIC "-//W3C//DTD SVG 1.1//EN" "http://www.w3.org/Graphics/SVG/1.1/DTD/svg11.dtd" >
<svg xmlns="http://www.w3.org/2000/svg" xmlns:xlink="http://www.w3.org/1999/xlink" version="1.1" viewBox="-24 0 648 1000">
   <path fill="currentColor"
d="M-13 694l56 -3c2 0 4 -1 5 -4c70 -179 163 -427 232 -605c11 -1 33 -2 54 -2c67 180 154 430 219 611l61 3c0 14 0 31 -1 46h-94c-46 0 -92 1 -132 1c0 -16 1 -32 1 -47l78 -3c2 0 3 -2 2 -5c-16 -45 -35 -101 -51 -144c-1 -4 -3 -5 -7 -5l-239 1c-16 48 -37 107 -53 153
l90 3c0 14 0 31 -1 46h-133c-29 0 -61 1 -88 1c0 -16 1 -32 1 -47zM299 193h-4c-34 91 -73 202 -106 290c-1 4 -1 6 2 6l210 1c-31 -92 -70 -205 -102 -297z" />
</svg>
