<?xml version="1.0" standalone="no"?>
<!DOCTYPE svg PUBLIC "-//W3C//DTD SVG 1.1//EN" "http://www.w3.org/Graphics/SVG/1.1/DTD/svg11.dtd" >
<svg xmlns="http://www.w3.org/2000/svg" xmlns:xlink="http://www.w3.org/1999/xlink" version="1.1" viewBox="-10 0 1508 2048">
   <path fill="currentColor"
d="M1250 1668q-92 0 -160 -236q-26 -90 -65 -315q-102 14 -267 50l-266 55q-50 131 -171 383q-32 56 -87 56q-40 0 -71.5 -29t-31.5 -72q0 -48 151 -365q-17 -26 -17 -60q0 -81 98 -104q114 -214 288 -492q237 -379 295 -379q79 0 108 110l63 336l149 695l57 158
q29 81 29 108q0 43 -31 72t-71 29zM897 525l-286 461q121 -31 367 -75z" />
</svg>
