<?xml version="1.0" standalone="no"?>
<!DOCTYPE svg PUBLIC "-//W3C//DTD SVG 1.1//EN" "http://www.w3.org/Graphics/SVG/1.1/DTD/svg11.dtd" >
<svg xmlns="http://www.w3.org/2000/svg" xmlns:xlink="http://www.w3.org/1999/xlink" version="1.1" viewBox="-67 0 1475 2048">
   <path fill="currentColor"
d="M754 117l444 1223q25 69 45.5 93.5t58.5 36.5l94 28l2 43q-131 -3 -243 -3q-114 0 -269 3l-4 -43l95 -28q20 -7 28.5 -15.5t8.5 -26.5q0 -20 -10.5 -52.5t-29.5 -86.5l-94 -268h-482l-105 267q-21 56 -33 89t-12 52q0 17 9.5 25.5t28.5 14.5l93 27l2 45q-142 -3 -232 -3
t-201 3l-5 -43l101 -31q38 -12 56 -37t40 -78l511 -1220zM435 930h412l-195 -551z" />
</svg>
