<?xml version="1.0" standalone="no"?>
<!DOCTYPE svg PUBLIC "-//W3C//DTD SVG 1.1//EN" "http://www.w3.org/Graphics/SVG/1.1/DTD/svg11.dtd" >
<svg xmlns="http://www.w3.org/2000/svg" xmlns:xlink="http://www.w3.org/1999/xlink" version="1.1" viewBox="-10 0 1397 2048">
   <path fill="currentColor"
d="M1164 1638l-505 -1054h98q20 52 56 131q40 85 45 101q5 9 9 21l235 487q123 254 262 308v18q-136 -12 -200 -12zM450 1135h302l-145 -304zM877 1396l-89 -186h-377l-95 186l-5 13q-1 1 -15 29q-21 42 -21 86q0 76 84 108v18q-17 0 -59 -5q-59 -7 -106 -7q-43 0 -106 7
q-43 5 -57 5v-18q110 -56 200 -231l332 -646q-38 -77 -104.5 -119t-155.5 -46v-18h35q47 0 129 6q86 6 112 6l505 1054q-97 2 -233 12v-18q76 -13 76 -82q0 -51 -50 -154z" />
</svg>
