<?xml version="1.0" standalone="no"?>
<!DOCTYPE svg PUBLIC "-//W3C//DTD SVG 1.1//EN" "http://www.w3.org/Graphics/SVG/1.1/DTD/svg11.dtd" >
<svg xmlns="http://www.w3.org/2000/svg" xmlns:xlink="http://www.w3.org/1999/xlink" version="1.1" viewBox="-10 0 889 1000">
   <path fill="currentColor"
d="M339 412h75c10 0 40 2 40 -13s-29 -67 -37 -81c-9 -16 -26 -53 -48 -53c-24 0 -41 60 -45 71s-21 50 -21 62c0 17 25 14 36 14zM141 477l63 -137c31 -69 72 -157 72 -236c0 -69 32 -121 121 -121c87 0 142 89 181 155c17 29 168 335 204 417c33 76 87 30 87 87
c0 73 -142 70 -192 70c-143 0 -229 -1 -229 -63c0 -48 61 -30 61 -65c0 -45 -25 -49 -186 -49c-52 0 -83 2 -83 51c0 39 64 13 64 65c0 60 -108 61 -148 61c-143 0 -156 -27 -156 -59c0 -47 54 -33 83 -69c22 -27 43 -75 58 -107z" />
</svg>
