<?xml version="1.0" standalone="no"?>
<!DOCTYPE svg PUBLIC "-//W3C//DTD SVG 1.1//EN" "http://www.w3.org/Graphics/SVG/1.1/DTD/svg11.dtd" >
<svg xmlns="http://www.w3.org/2000/svg" xmlns:xlink="http://www.w3.org/1999/xlink" version="1.1" viewBox="-63 0 844 1000">
   <path fill="currentColor"
d="M341 551l-88 -246l-85 246h173zM161 572l-31 104q-10 36 -10 57q0 23 11.5 32t29.5 12.5t35 4.5t33 2v16h-282v-16l59 -4q33 -4 50 -16.5t25.5 -31.5t19 -45t17.5 -47l191 -572h110l211 572l31 78q14 31 28.5 44.5t40.5 17.5l41 4v16h-475v-16q12 0 21.5 -0.5t34.5 -4.5
t36 -10.5t11 -27.5q0 -22 -14 -63l-36 -106h-188z" />
</svg>
