<?xml version="1.0" standalone="no"?>
<!DOCTYPE svg PUBLIC "-//W3C//DTD SVG 1.1//EN" "http://www.w3.org/Graphics/SVG/1.1/DTD/svg11.dtd" >
<svg xmlns="http://www.w3.org/2000/svg" xmlns:xlink="http://www.w3.org/1999/xlink" version="1.1" viewBox="-10 0 724 2048">
   <path fill="currentColor"
d="M440 654v-11h-5c0 7 2 11 5 11zM271 623c-5 21 -11 43 -18 66c1 9 -3 41 -11 97c3 -1 21 -1 55 0c1 0 2 -1 5 -2c2 -1 4 -2 5 -2l10 4l12 4c3 0 16 0 38 -1c17 -1 28 1 34 4c5 -3 14 -4 27 -4c15 0 25 -1 31 -3c1 -9 -1 -19 -6 -30s-6 -22 -5 -31
c-17 -38 -27 -82 -30 -132c-7 -14 -12 -36 -17 -65c-5 -30 -11 -52 -17 -65c-1 -18 -8 -54 -22 -108c1 3 2 -1 4 -13c-2 -4 -5 -17 -10 -40c-4 -17 -9 -29 -16 -36c-29 125 -46 203 -50 234c-9 69 -16 110 -19 123zM356 190l10 10c1 3 2 10 2 23c0 11 2 19 7 23
c1 11 7 45 17 104c-1 -5 4 23 15 83c1 5 3 11 5 18l6 18c19 92 29 138 30 139c-1 1 7 30 22 87c1 3 1 8 2 15s1 12 2 15c5 41 21 82 38 124c0 4 1 10 3 17c1 7 2 13 1 18c5 16 11 48 20 96c7 41 15 71 23 92c7 42 16 77 28 104c1 27 9 57 22 89c-1 6 5 36 20 89
c12 45 21 71 25 76c0 6 12 51 35 135c0 1 1 6 3 15c1 7 2 13 4 17c5 11 8 16 8 17c-1 4 -6 9 -17 14c-6 -2 -10 -7 -13 -14c-2 -7 -2 -13 0 -19c0 -1 -4 -6 -13 -15c-11 -55 -17 -82 -17 -83c-6 -15 -26 -85 -61 -208c0 -22 -6 -43 -17 -63c-2 -21 -7 -45 -14 -70
c-9 -31 -14 -53 -17 -68c0 -1 -1 -1 -3 -1c-2 -1 -3 -1 -3 -2c1 -10 0 -18 -5 -24v-3c-1 -1 -1 -2 0 -3c0 -2 1 -3 3 -2c-4 -16 -12 -55 -25 -117c-10 -49 -20 -88 -30 -115c-144 -4 -223 -6 -236 -5c-15 53 -23 96 -22 131c-1 1 -2 2 -3 5s-2 4 -3 5c-1 6 -1 17 -1 34
c0 14 -1 25 -3 32c-1 4 -2 9 -5 15l-6 13c-1 4 -1 10 -1 17c0 8 0 14 -1 17c-1 12 -4 27 -8 46l-10 46c-3 13 -4 30 -6 53l-5 53c1 -6 -6 23 -19 86c1 5 1 11 0 18s-2 13 -2 17l-3 5l-4 6c-1 25 -6 56 -14 93c-9 43 -15 75 -18 94c-2 3 -4 9 -6 17c-1 9 -4 15 -7 19
c-2 0 -4 0 -7 -1s-6 -1 -7 -1c-7 -12 -9 -18 -6 -17c4 -7 6 -17 6 -29c1 -17 1 -27 1 -30c1 -4 4 -9 6 -15l6 -15c12 -50 17 -73 14 -69c-1 -4 4 -34 15 -89c2 -11 4 -26 6 -46l5 -45c3 -3 6 -10 6 -22c1 -13 2 -22 5 -26c0 -17 3 -39 8 -64s8 -45 7 -58c2 -1 3 -3 4 -7
s2 -6 4 -6c1 -3 0 -4 -2 -5s-3 -3 -2 -5c1 -9 5 -22 10 -41c5 -18 8 -31 9 -40c1 -8 1 -20 1 -35s1 -27 2 -34s4 -20 9 -39c4 -17 7 -32 8 -43c0 -1 -1 -2 -2 -3s-2 -1 -2 0l4 -13l4 -13c17 -54 22 -85 22 -89c1 -18 3 -29 4 -34c5 -19 8 -44 11 -74c6 -11 11 -31 15 -58
c4 -29 8 -48 13 -57c8 -85 17 -138 28 -161c-5 -9 -2 -20 7 -32c0 -6 5 -38 15 -95c-1 2 -2 0 -4 -7c2 -3 4 -9 6 -17l6 -19c4 -14 14 -17 27 -10c-1 6 0 11 5 16zM440 654h6v11c-4 0 -6 -4 -6 -11z" />
</svg>
