<?xml version="1.0" standalone="no"?>
<!DOCTYPE svg PUBLIC "-//W3C//DTD SVG 1.1//EN" "http://www.w3.org/Graphics/SVG/1.1/DTD/svg11.dtd" >
<svg xmlns="http://www.w3.org/2000/svg" xmlns:xlink="http://www.w3.org/1999/xlink" version="1.1" viewBox="-10 0 724 2048">
   <path fill="currentColor"
d="M440 643h-5q0 11 5 11v-11zM271 623q-7 31 -18 66q1 13 -11 97q4 -1 55 0q1 0 5 -2q3 -2 5 -2q3 1 10 4t12 4q5 0 38 -1q25 -1 34 4q8 -4 27 -4q22 0 31 -3q1 -13 -6 -30t-5 -31q-25 -57 -30 -132q-10 -21 -17 -65q-8 -45 -17 -65q-1 -27 -22 -108q1 5 4 -13
q-3 -6 -10 -40q-6 -26 -16 -36q-44 187 -50 234q-14 104 -19 123zM356 190l10 10q2 4 2 23q0 17 7 23q2 16 17 104q-1 -7 15 83q1 7 5 18q5 12 6 18q29 138 30 139q-1 2 22 87q1 5 2 15t2 15q12 61 38 124q0 6 3 17q2 10 1 18q7 24 20 96q11 61 23 92q10 63 28 104
q2 41 22 89q-1 9 20 89q19 68 25 76q0 9 35 135q0 2 3 15q1 11 4 17q8 16 8 17q-1 6 -17 14q-9 -3 -13 -14q-3 -10 0 -19q0 -1 -13 -15q-17 -82 -17 -83q-9 -23 -61 -208q0 -33 -17 -63q-3 -32 -14 -70q-13 -46 -17 -68q0 -1 -3 -1q-3 -1 -3 -2q2 -15 -5 -24v-3q-1 -2 0 -3
q0 -3 3 -2q-6 -24 -25 -117q-15 -74 -30 -115q-216 -6 -236 -5q-23 79 -22 131q-2 1 -3 5t-3 5q-1 9 -1 34q0 21 -3 32q-1 6 -5 15q-5 9 -6 13q-1 6 -1 17q0 12 -1 17q-2 18 -8 46q-8 37 -10 46q-4 19 -6 53q-3 38 -5 53q1 -9 -19 86q1 7 0 18q-2 11 -2 17q-1 2 -3 5
q-3 4 -4 6q-2 38 -14 93q-14 65 -18 94q-3 5 -6 17q-2 13 -7 19q-3 0 -7 -1q-5 -1 -7 -1q-11 -18 -6 -17q6 -11 6 -29q1 -25 1 -30q1 -6 6 -15l6 -15q18 -75 14 -69q-1 -6 15 -89q3 -16 6 -46q3 -31 5 -45q5 -4 6 -22q0 -20 5 -26q0 -26 8 -64t7 -58q3 -1 4 -7t4 -6
q1 -4 -2 -5q-3 -2 -2 -5q2 -13 10 -41q7 -27 9 -40q1 -12 1 -35t2 -34q2 -10 9 -39q6 -26 8 -43q0 -1 -2 -3q-2 -1 -2 0q1 -5 4 -13q3 -10 4 -13q22 -83 22 -89q2 -27 4 -34q7 -29 11 -74q9 -17 15 -58q6 -43 13 -57q12 -127 28 -161q-7 -14 7 -32q0 -9 15 -95q-1 3 -4 -7
q3 -5 6 -17q4 -15 6 -19q7 -21 27 -10q-2 9 5 16zM446 654v11q-6 0 -6 -11h6z" />
</svg>
