<?xml version="1.0" standalone="no"?>
<!DOCTYPE svg PUBLIC "-//W3C//DTD SVG 1.1//EN" "http://www.w3.org/Graphics/SVG/1.1/DTD/svg11.dtd" >
<svg xmlns="http://www.w3.org/2000/svg" xmlns:xlink="http://www.w3.org/1999/xlink" version="1.1" viewBox="-151 0 1136 2048">
   <path fill="currentColor"
d="M649 768q-227 45 -380 106q-92 135 -202 324l-53 93q-14 25 -43 72q-32 55 -67 55q-19 0 -32 -15q-13 -13 -13 -29q0 -28 75 -159q41 -71 124 -201q32 -50 51 -82q-60 17 -110 39q-24 11 -40 11q-20 0 -31 -18q-8 -11 -8 -26q0 -34 24 -48q39 -24 140 -55q75 -24 119 -44
q21 -26 110 -153q38 -55 216 -260q128 -150 264 -279q79 -76 121 -76q26 0 45 21q16 19 16 42q0 28 -28 98q-48 123 -92 263q-38 124 -51 190q18 0 24 -1q29 -1 48 -1q58 0 58 44q0 19 -12.5 37.5t-28.5 22.5q-6 2 -33 2q-57 0 -85 7q-24 71 -76 363q-27 194 -26 238
q0 72 -43 72q-34 0 -53 -35q-14 -24 -14 -65q0 -138 49 -372q25 -118 37 -181zM677 660q9 -29 46 -155q9 -33 46 -131q37 -101 59 -162q-65 43 -132 114q-236 254 -333 415q37 -9 159 -45q35 -10 155 -36z" />
</svg>
