<?xml version="1.0" standalone="no"?>
<!DOCTYPE svg PUBLIC "-//W3C//DTD SVG 1.1//EN" "http://www.w3.org/Graphics/SVG/1.1/DTD/svg11.dtd" >
<svg xmlns="http://www.w3.org/2000/svg" xmlns:xlink="http://www.w3.org/1999/xlink" version="1.1" viewBox="-25 0 1412 2048">
   <path fill="currentColor"
d="M-11 1606q14 -8 25 -8h23q7 0 24 -1q77 -7 91 -14q35 -19 60 -66q52 -102 117 -289q31 -89 39 -108q25 -60 48 -126l94 -263q22 -62 106 -284q21 -56 51 -150l29 -2l35 1q43 85 76 183q18 52 59 155l152 411l81 223q64 190 84 233.5t37 57.5q5 4 37.5 12t45.5 12
q46 13 64 22q4 11 4 17q0 5 -3 15q-32 1 -45 1q-51 0 -180 -3l-100 -3l-121 2q-12 0 -24.5 -1.5t-21.5 -1.5h-22q-11 -1 -20 -6q0 -14 5 -27q12 -6 22 -7l105 -7q41 -2 62 -11q6 -18 6 -27q0 -18 -26 -93q-18 -50 -31.5 -95t-106.5 -296q-41 -7 -72 -7l-214 2l-63 -1
q-34 0 -75 5q-13 30 -17 43l-88 275q-56 157 -56 173q0 9 9 30q21 6 56 11l136 12q11 9 11 16q0 5 -3 15q-45 1 -69 1q-80 0 -186 -5q-49 -2 -70 -2t-73 2q-34 2 -49 2q-24 0 -62 -3v-6q0 -7 4 -19zM466 1006q107 6 244 6q78 0 137 -5q-10 -39 -23 -73q-65 -174 -72 -192
l-91 -231l-10 -18q-6 12 -44 103q-64 156 -92 243q-13 39 -27 77.5t-17.5 54t-10.5 31.5z" />
</svg>
