<?xml version="1.0" standalone="no"?>
<!DOCTYPE svg PUBLIC "-//W3C//DTD SVG 1.1//EN" "http://www.w3.org/Graphics/SVG/1.1/DTD/svg11.dtd" >
<svg xmlns="http://www.w3.org/2000/svg" xmlns:xlink="http://www.w3.org/1999/xlink" version="1.1" viewBox="-51 0 1482 2048">
   <path fill="currentColor"
d="M1421 1638h-591v-71q78 -5 129.5 -20t51.5 -37q0 -9 -2 -22t-6 -23l-118 -318h-497q-28 70 -45.5 122t-31.5 96q-13 43 -18 70t-5 44q0 40 63 62t142 26v71h-534v-71q26 -2 65 -11.5t64 -25.5q40 -27 62 -56.5t43 -81.5q107 -267 236 -600t230 -593h80l473 1224
q15 39 34 63t53 47q23 14 60 23.5t62 10.5v71zM849 1058l-215 -550l-211 550h426z" />
</svg>
