<?xml version="1.0" standalone="no"?>
<!DOCTYPE svg PUBLIC "-//W3C//DTD SVG 1.1//EN" "http://www.w3.org/Graphics/SVG/1.1/DTD/svg11.dtd" >
<svg xmlns="http://www.w3.org/2000/svg" xmlns:xlink="http://www.w3.org/1999/xlink" version="1.1" viewBox="-10 0 672 1000">
   <path fill="currentColor"
d="M491 299c93 53 141 139 141 228c0 107 -60 152 -113 152c-21 0 -41 -7 -54 -21c-24 -25 -35 -67 -35 -136c0 -34 6 -104 15 -200c-46 -22 -101 -33 -160 -33c-30 0 -58 3 -84 7c-17 59 -27 125 -30 178c67 2 132 -29 132 -82c0 -13 8 -22 21 -22c12 0 22 9 22 22
c0 75 -80 125 -176 123c0 58 9 101 22 119c4 4 6 9 6 14c0 12 -10 22 -23 22c-28 0 -50 -60 -49 -160c-73 -15 -106 -58 -106 -108c0 -66 57 -116 146 -140c40 -127 108 -239 206 -239c33 0 59 10 78 30c31 30 45 84 45 167c0 25 -1 51 -4 79zM474 522c0 65 9 117 47 117
c41 0 67 -50 67 -112c0 -77 -41 -142 -100 -182c-6 58 -14 137 -14 177zM372 64c-67 0 -119 85 -155 188c21 -3 44 -5 68 -5c59 0 114 11 163 31c2 -20 3 -40 3 -59c0 -69 -11 -115 -33 -137c-11 -11 -26 -18 -46 -18zM154 309c-46 17 -89 49 -89 93c0 30 16 54 62 67
c2 -45 13 -108 27 -160z" />
</svg>
