<?xml version="1.0" standalone="no"?>
<!DOCTYPE svg PUBLIC "-//W3C//DTD SVG 1.1//EN" "http://www.w3.org/Graphics/SVG/1.1/DTD/svg11.dtd" >
<svg xmlns="http://www.w3.org/2000/svg" xmlns:xlink="http://www.w3.org/1999/xlink" version="1.1" viewBox="-10 0 1814 2048">
   <path fill="currentColor"
d="M1722 1466h-12l6 47l-10 39h-6l-17 53l-20 6l-6 17q-52 27 -141 27q-14 0 -43 -1q-119 -35 -189 -178q-4 -56 -16 -86h-17q-38 -92 -53 -168l10 -10l-4 -39l-16 -4v-49l-23 6v-16q-44 -19 -89 -19q-12 0 -29 2l-37 21l-56 -11l-43 -26l-53 20l-43 -16l-22 12l-2 8l-9 30
l-12 40l-4 14q-21 36 -49 103l12 31l-33 81l-22 23l-4 37q-19 20 -33 65l-55 60l-60 10l-10 16l-16 4l-17 13h-26l-54 26l-6 -16l-37 10l-39 -10l-4 -10l-16 4l-72 -21q-13 -16 -51 -28q-37 -13 -45 -20q-7 -6 -55 -42l-11 -8l-43 -102v-70q28 -52 39 -125h11v-10h16l37 -70
l49 -22l6 -27q13 6 27 6q12 0 35 -3q24 -3 41 -3q52 0 92 23l47 53l12 -33l27 -16l16 -47l31 -13l16 -20q39 -19 49 -33h50l10 -6l76 27l49 -11q3 -32 33 -99q27 -62 27 -103q0 -1 -1 -19q13 -15 52 -99q36 -77 40 -100l54 -71l16 -76l-6 -31q11 -27 11 -41q0 -3 -1 -8
q12 -12 39 -82q114 0 184 -10q11 10 30 10q12 0 30 -4l4 10h26v11l-4 6v10q-18 18 -43 23l-12 16l-16 59l28 60v59q0 24 -16 64l33 43v16l4 -4l10 90l-10 23l43 79l-21 39q0 45 10 66l-10 47l27 59l10 -10l39 10l119 -20q17 -8 60 -42q43 -35 46 -50l13 6l-13 47l6 22l11 11
v10l-27 22l6 21l-12 12l-53 21h-37q-29 20 -49 22q-9 -14 -39 -26h-54l-10 4l-10 12l14 20q8 29 17 82l28 48l-6 28q40 76 54 156l26 33l12 4l5 49q15 17 59 55l39 10l43 -16l26 -27q13 -28 13 -83q0 -17 -2 -52l-17 -16h-10q-25 26 -33 59l-26 10l6 43l16 13l10 -17l11 11
v16l-4 4h-33q-21 -5 -49 -14q-7 -42 -7 -66q0 -7 1 -16h-11v-23q11 -36 17 -47h10l6 -16l43 -27l49 -6l37 16v37l23 6l32 54v12zM1171 931l-6 -6q-48 -125 -49 -243h12v-37l11 -11v-43q-16 -7 -33 -28l-6 -90l6 -13l-49 -92l-4 66l-6 6l-21 102q-42 46 -76 135l-16 11
q-39 92 -43 162l-17 26q1 5 1 8q0 39 -39 107v16l26 15h23l22 -11l15 17q61 4 98 16l37 -6l39 16q20 -5 38 -5q8 0 15 1v-55l10 -10q2 -9 3 -13q3 -41 9 -41v0v0v0v0zM729 1081h-4q-23 0 -43 -4q-28 -6 -45 -6q-13 0 -34 5q-14 3 -25 5l-23 22q-4 25 -49 70q-1 10 -7 34
q-7 22 -7 38l-17 26l-16 123l-23 33l-43 10l-33 23q-140 -29 -151 -141l6 -54q35 -29 43 -49h6l4 -16l17 -4l16 20l-10 29l16 31h-10v28l-23 10l-6 17l29 53h10l6 16l60 -6l30 -63l-20 -103q-18 -1 -49 -32l6 -23l-66 -10q-71 20 -90 46q-20 23 -45 36v10l-16 33
q0 73 -10 119l26 53l23 10l16 43l103 66q30 6 35 6q7 0 61 -6q56 -64 125 -86h-27l4 -23l23 6q38 -25 43 -43l-10 -6q36 -58 90 -123l-11 -22l23 -11z" />
</svg>
