<?xml version="1.0" standalone="no"?>
<!DOCTYPE svg PUBLIC "-//W3C//DTD SVG 1.1//EN" "http://www.w3.org/Graphics/SVG/1.1/DTD/svg11.dtd" >
<svg xmlns="http://www.w3.org/2000/svg" xmlns:xlink="http://www.w3.org/1999/xlink" version="1.1" viewBox="-51 0 1470 2048">
   <path fill="currentColor"
d="M820 1115h-362q-74 0 -92 12t-48 80l-65 147q-44 101 -44 150q0 47 23.5 68t92.5 36q30 6 31 24q1 17 -28 17q-11 0 -34 -1l-96 -5q-48 -2 -111 -2q-29 0 -45 1q-51 4 -56 4q-27 0 -27 -18q0 -16 17 -21l37 -11q20 -6 54 -48.5t56 -88.5l29 -66l514 -1141q13 -30 29 -30
t27 29l430 1100l22 54q47 121 78 150.5t126 46.5q31 6 30 25q-1 17 -28 17q-9 0 -38 -2q-52 -5 -185 -5q-139 0 -174 6q-21 4 -31 4q-26 0 -26 -21q0 -16 25 -21l31 -7q50 -10 50 -68q0 -53 -61 -211l-50 -132q-21 -55 -33 -63.5t-68 -8.5zM832 955l-157 -396l-8 -21
q-12 -32 -26 -33q-7 -1 -16 19l-195 433q-13 28 -13 37q0 26 46 26l27 1h302q50 0 50 -25q0 -7 -5 -23z" />
</svg>
