<?xml version="1.0" standalone="no"?>
<!DOCTYPE svg PUBLIC "-//W3C//DTD SVG 1.1//EN" "http://www.w3.org/Graphics/SVG/1.1/DTD/svg11.dtd" >
<svg xmlns="http://www.w3.org/2000/svg" xmlns:xlink="http://www.w3.org/1999/xlink" version="1.1" viewBox="-10 0 1538 2048">
   <path fill="currentColor"
d="M1400 1616q2 2 3 6q1 3 1 5q0 11 -18 11q-10 1 -59.5 -2.5t-68.5 -3.5q-32 0 -96 5q-24 2 -34 1q-17 0 -17 -12q0 -5 3 -8q3 -4 43 -35q31 -24 31 -43q2 -11 4.5 -31.5t2.5 -47.5q0 -110 -34 -216q-49 -152 -165 -283q-70 -78 -159.5 -133.5t-200.5 -92.5
q-57 101 -97 221q-53 160 -53 299q0 152 7 218q12 115 53 206q26 55 78 96q28 22 72 44q12 6 12 14q0 7 -10 10q-29 9 -55.5 19t-61 27t-59.5 35q-17 12 -32 25q-8 6 -13 6q-9 0 -9 -16q0 -31 -3 -71t-15 -127q-18 -103 -33 -204t-15 -190q0 -183 47 -361q41 -156 107 -271
q-22 -4 -46.5 -7t-56.5 -3q-57 0 -118.5 13.5t-107.5 44.5q-61 41 -61 96q0 57 46 66q4 1 12 1q21 0 36.5 -10t18 -30t10.5 -20q6 0 9.5 11t3.5 28q0 9 -2 19.5t-4 20.5q-13 37 -44 61.5t-77 24.5q-6 1 -11 1q-53 0 -89.5 -39.5t-36.5 -101.5q0 -103 112 -171
q74 -45 166 -63q32 -6 71 -9t80 -3q81 0 127 10q145 -192 321 -297q203 -121 441 -121q33 0 33 9q0 4 -7 11q-33 37 -42 67q-12 42 -12 153v1062q0 19 30 42q40 31 42 34zM1188 1112v-790q-144 27 -286 126q-78 54 -126 103t-102 129q86 29 157 68q63 35 129 88
q73 58 126 123q49 60 102 153z" />
</svg>
