<?xml version="1.0" standalone="no"?>
<!DOCTYPE svg PUBLIC "-//W3C//DTD SVG 1.1//EN" "http://www.w3.org/Graphics/SVG/1.1/DTD/svg11.dtd" >
<svg xmlns="http://www.w3.org/2000/svg" xmlns:xlink="http://www.w3.org/1999/xlink" version="1.1" viewBox="-10 0 708 1000">
   <path fill="currentColor"
d="M592 853h-112c-9 0 -38 3 -38 -12c0 -28 77 -128 77 -242c0 -45 -43 -62 -88 -62c-91 0 -236 16 -236 130c0 79 65 164 65 179c0 6 -6 7 -19 7h-143c-51 0 -65 -90 -65 -220c0 -428 297 -627 341 -627c33 0 291 143 291 607c0 267 -43 240 -73 240zM378 177
c-54 0 -161 159 -161 232c0 12 7 19 19 19c18 0 115 -26 203 -26c35 0 51 -5 51 -33c0 -62 -74 -192 -112 -192z" />
</svg>
