<?xml version="1.0" standalone="no"?>
<!DOCTYPE svg PUBLIC "-//W3C//DTD SVG 1.1//EN" "http://www.w3.org/Graphics/SVG/1.1/DTD/svg11.dtd" >
<svg xmlns="http://www.w3.org/2000/svg" xmlns:xlink="http://www.w3.org/1999/xlink" version="1.1" viewBox="-10 0 1577 2048">
   <path fill="currentColor"
d="M1501 1496q-6 27 -13 32q-6 4 -28 -2q-143 -26 -418 -6q-52 4 -57 -20q-5 -28 33 -43q108 -44 108 -82q0 -15 -12 -43q-74 -177 -123 -285q-71 4 -250 4q-148 0 -252 -8q-35 86 -98 240q-14 35 -14 63q0 56 61 82q94 40 92 61q-2 34 -63 27q-188 -20 -348 12
q-42 9 -47 -30q-4 -26 65 -56q74 -31 125 -143q195 -423 252 -556q138 -319 195 -521q8 -31 79 -58q17 -6 43 58q216 520 484 1112q43 94 145 125q46 13 41 37zM958 969q-66 -150 -206 -465q-8 -17 -18 -17t-17 17l-191 461q107 8 240 8q82 0 192 -4z" />
</svg>
