<?xml version="1.0" standalone="no"?>
<!DOCTYPE svg PUBLIC "-//W3C//DTD SVG 1.1//EN" "http://www.w3.org/Graphics/SVG/1.1/DTD/svg11.dtd" >
<svg xmlns="http://www.w3.org/2000/svg" xmlns:xlink="http://www.w3.org/1999/xlink" version="1.1" viewBox="-133 0 1398 2048">
   <path fill="currentColor"
d="M1035 835q107 -19 142 -19q34 0 34 27q0 23 -27 30q-12 4 -74 11q-73 9 -86 23q-15 17 -36 227q-20 202 -13 239q7 32 35 32q6 0 15 -1q58 -5 120 -5t62 29q0 26 -42 29q-142 9 -247 34q-76 19 -122 38l-113 46q-16 6 -31 6q-22 0 -22 -22q0 -25 27 -40q79 -42 202 -80
q2 -194 43 -517q-329 61 -454 99q-57 66 -171 225q-52 73 -52 89q0 22 28 22q9 0 85 -7q39 -3 71 -3q42 0 42 27q0 26 -45 29q-141 9 -239 33q-82 20 -122 38l-113 48q-20 9 -37 9q-18 0 -18 -24q0 -21 32 -39q84 -44 189 -78l12 -16q168 -240 233 -323q-18 3 -127 34
q-16 5 -28 5q-22 0 -22 -28q0 -21 58 -40q49 -16 108 -32q59 -15 77 -20l15 -16q315 -359 559 -590q83 -79 125 -109q26 -19 44 -19q33 0 33 32q0 13 -12 43q-110 284 -138 524zM910 856q7 -62 39 -203q26 -112 41 -163q2 -7 2 -11q0 -19 -18 -13q-21 6 -256 253
q-166 174 -166 189q0 17 13 17q11 0 174 -36q69 -15 171 -33z" />
</svg>
