<?xml version="1.0" standalone="no"?>
<!DOCTYPE svg PUBLIC "-//W3C//DTD SVG 1.1//EN" "http://www.w3.org/Graphics/SVG/1.1/DTD/svg11.dtd" >
<svg xmlns="http://www.w3.org/2000/svg" xmlns:xlink="http://www.w3.org/1999/xlink" version="1.1" viewBox="-10 0 632 1000">
   <path fill="currentColor"
d="M582.5 503q-3.5 8 -9.5 12q-7 6 -29 10.5t-30 5.5q8 38 8 37q7 25 15 69q18 101 37 172q5 23 5 27q0 10 -8 17t-19 7q-10 0 -18 -10.5t-11 -18.5q-9 -34 -16.5 -76t-17.5 -101q-4 -26 -13 -64.5t-12 -50.5q-59 8 -203 32l-58 10l-21 59l-28 80q-35 109 -50 168
q-3 14 -12 23.5t-22 9.5q-11 0 -18.5 -6t-7.5 -17t12 -46.5t14 -42.5q4 -10 16 -46q13 -39 33.5 -94.5t27.5 -73.5q-51 12 -76 19q-38 10 -47 10q-11 0 -16.5 -8.5t-5.5 -18.5q0 -12 6 -16.5t20 -8.5q38 -9 80.5 -18t58.5 -12q10 -29 15 -49q4 -13 10.5 -32.5t14.5 -48.5
l15 -51q38 -134 44 -153q5 -14 9.5 -22t12.5 -8q20 0 36 6q2 -2 6.5 -8.5t10 -9t14.5 -2.5q18 0 41.5 41t45.5 97q13 33 33 98.5t26 86.5q15 -2 25.5 -5.5l13.5 -4.5q5 -2 11 -7t11 -7.5t11 0.5q13 6 13 25q0 7 -3.5 15zM434 419.5q-16 -57.5 -30 -93.5q-14 -37 -36 -76
t-37 -49l-11 26q-19 38 -29 69q-24 72 -76 238l117 -20l96 -15l27 -4q-5 -18 -21 -75.5z" />
</svg>
