<?xml version="1.0" standalone="no"?>
<!DOCTYPE svg PUBLIC "-//W3C//DTD SVG 1.1//EN" "http://www.w3.org/Graphics/SVG/1.1/DTD/svg11.dtd" >
<svg xmlns="http://www.w3.org/2000/svg" xmlns:xlink="http://www.w3.org/1999/xlink" version="1.1" viewBox="-123 0 1956 2048">
   <path fill="currentColor"
d="M1792 1763q0 98 -94 98q-66 0 -145 -123q-58 -91 -189 -362q-382 -6 -864 -178q-384 401 -523 401q-36 0 -63 -26.5t-27 -63.5q0 -41 66.5 -93.5t132.5 -104.5q113 -90 215 -195q-172 -68 -172 -140q0 -41 27 -70.5t65 -29.5q31 0 91 28q106 48 126 56q403 -529 453 -772
q14 -83 29 -167q20 -62 94 -62q61 0 82 51q12 30 20 91q9 75 17 105q95 387 368 973q46 -1 89 -5l40 -3q111 0 111 100q0 103 -115 103h-29q39 80 135 245q60 104 60 144zM1270 1177q-161 -349 -279 -739q-144 323 -358 598q311 114 637 141z" />
</svg>
