<?xml version="1.0" standalone="no"?>
<!DOCTYPE svg PUBLIC "-//W3C//DTD SVG 1.1//EN" "http://www.w3.org/Graphics/SVG/1.1/DTD/svg11.dtd" >
<svg xmlns="http://www.w3.org/2000/svg" xmlns:xlink="http://www.w3.org/1999/xlink" version="1.1" viewBox="-10 0 1985 2048">
   <path fill="currentColor"
d="M1965 275q-22 32 -44 74q-69 37 -147 50l-28 22l6 14h-6v22q-16 33 -88 118v29q-26 12 -74 36l-14 16l-8 44h8l8 42q-13 48 -30 88l-22 14l-36 96l22 14h88q62 -19 86 -28l12 -30l-12 -30l-14 -6l-6 -30l86 -22l36 14l38 38v44q-8 29 -8 28l-50 8l-16 14l-14 30
q-252 47 -321 81l-16 36q6 22 22 52l-22 28l-6 116q-35 31 -30 60q-44 69 -44 171v26l8 8l-8 14l8 8l6 50q30 -10 103 -55q65 -39 104 -47q1 -2 86 -66v-6l16 -16l14 -45l28 -36l30 8l30 -22l42 44q0 34 -20 67h-60l-36 36l-14 6l-14 38q-30 19 -88 58q-78 57 -161 102v8
q-54 0 -110 28l-74 -24l-42 -34l-8 -74q-31 -13 -72 -42v-30l-16 -30q22 -152 102 -197l8 -14q0 -59 36 -88l-14 -36l14 -66l52 -44v-36l-22 -15q-56 -9 -112 -19q-66 -12 -109 -33h-22q-38 43 -84 116q-68 107 -76 119q-16 19 -44 58q-10 4 -108 102v14l-22 14l-14 30
l-39 31h-14q-34 55 -110 102q-23 8 -58 28q-33 5 -72 30l-22 28l-52 30l-72 -14q-31 -27 -75 -44l-6 -8l-74 -28v-38l-14 -14q-4 -28 -4 -40q0 -75 70 -215l28 -16l30 -36v-30l51 -42h8l36 -38l22 -6l8 -16q37 -18 110 -58l28 8q56 79 56 164q0 16 -4 48l-16 22l-6 58
l-16 22l-42 6l-22 -22l-16 -58l-36 -14q4 -20 4 -58q0 -26 -10 -66l-30 8l-66 50l-14 22v30l-31 14v36q-23 18 -44 55q-18 30 -36 61l-6 45l28 80l44 38l81 22q28 -19 88 -52v-8q73 -32 196 -147q16 -18 52 -50q18 -9 55 -30q25 -16 128 -124l14 -36l30 -22l36 -80l36 -22
q14 -30 44 -67l-8 -14h-72q-23 21 -77 33q-60 13 -81 27l-2 37l14 6h66l14 22l-8 14q-39 2 -116 16l-28 -8q-23 -26 -39 -30v-20l16 -16l-8 -23l14 -36v-22q24 -10 67 -6l22 -16h30l80 -36q12 1 54 5q33 3 54 3q10 0 26 -3q20 -4 26 -5l36 -58l37 -22l58 -94q35 -11 94 -63
q86 -75 90 -78q56 -41 138 -72h14l67 -44h36l74 -36h28l8 -22l36 -8l14 -14l-86 14q-28 -11 -84 -6h-70l-51 20h-30q-53 0 -154 -26t-154 -26q-18 0 -51 1t-50 1l-8 14q-27 10 -70.5 44t-67.5 44l-88 -8l-28 16l-8 22h-8l-14 36h-14q-31 0 -78 11q-64 15 -77 17
q-36 -11 -108 -28l-16 -22h-6q-12 -68 -12 -104q0 -38 26 -94l44 -6l6 -22q24 -15 92 -30q64 -14 99 -14q90 0 242 36l20 14h74l22 -14q18 -40 44 -58v-8h23l36 -15l14 -22h30q19 -17 57 -28q44 -13 59 -22v-8q20 -11 48 -8h18l22 16l14 36l-8 22l-36 23q-51 -17 -56 -17
q-36 0 -97 28q-48 24 -95 47l-37 36l8 8q52 -8 45 -8q7 0 84 16q173 36 244 36q9 0 25 -3q20 -4 26 -5q-19 2 60 2q15 0 33 -6q23 -8 31 -10h64q23 0 144 -18q125 -19 143 -26l22 6v8zM1600 487q-37 0 -118 50h-23q-74 32 -116 75q-75 21 -94 66l-22 6v16q-38 15 -78 71
q-44 62 -76 81l-6 22q105 8 160 46l72 6l36 -52l66 -30l16 -22q-2 -6 -2 -20q0 -46 24 -118q29 -35 95 -95q2 -17 29 -50q31 -39 37 -52zM868 311l-6 -14l-88 -8l-22 -14h-102q-87 0 -155 30q-22 10 -58 58l-14 8l-8 20l22 38l8 6l6 16q36 6 38 6q12 0 43 -4q28 -3 43 -2
l8 -16q89 -18 133 -44q11 -10 36 -28q45 -12 116 -52z" />
</svg>
