<?xml version="1.0" standalone="no"?>
<!DOCTYPE svg PUBLIC "-//W3C//DTD SVG 1.1//EN" "http://www.w3.org/Graphics/SVG/1.1/DTD/svg11.dtd" >
<svg xmlns="http://www.w3.org/2000/svg" xmlns:xlink="http://www.w3.org/1999/xlink" version="1.1" viewBox="-10 0 2591 2048">
   <path fill="currentColor"
d="M1366 1558l-56 80l-109 -2l63 -90q-185 -32 -329 -135q-304 246 -578 246q-118 0 -215.5 -63t-97.5 -158q0 -52 29.5 -81.5t65.5 -29.5q33 0 56 22.5t23 53.5q0 27 -19.5 46t-47.5 19q-63 0 -67 -82l-4 -1q-24 29 -24 64q0 81 95 141t219 60q148 0 311 -82t246 -163
q-223 -210 -223 -451q0 -148 78.5 -250.5t195.5 -102.5q133 0 242 106.5t166 280.5q415 -384 593 -504t321.5 -179.5t270.5 -64.5l-281 255q-201 182 -504 537.5t-412 516.5q170 -9 283 -102l7 7q-113 93 -298 106zM1388 999q15 57 15 118q0 150 -89 351l8 4
q265 -365 633 -734t571 -479l-2 -7q-194 18 -456 181t-680 566zM935 1397q79 -60 231 -199.5t212 -204.5q-41 -143 -142.5 -247t-222.5 -104q-126 0 -210.5 93t-84.5 234q0 232 217 428zM1271 1537q123 -234 123 -419q0 -54 -13 -114q-250 247 -438 401q52 43 149 82.5
t179 49.5z" />
</svg>
