<?xml version="1.0" standalone="no"?>
<!DOCTYPE svg PUBLIC "-//W3C//DTD SVG 1.1//EN" "http://www.w3.org/Graphics/SVG/1.1/DTD/svg11.dtd" >
<svg xmlns="http://www.w3.org/2000/svg" xmlns:xlink="http://www.w3.org/1999/xlink" version="1.1" viewBox="-10 0 2124 2048">
   <path fill="currentColor"
d="M91 1554l135 -136q95 146 249 146q147 0 276.5 -122.5t309.5 -434.5l431 -744q-109 -13 -187 -13q-209 0 -322.5 104.5t-113.5 298.5l-196 97q19 -188 105 -311q95 -137 224 -195t374 -75q49 -3 148 -11l204 -37l13 333l58 691q20 241 56.5 317.5t131.5 76.5q17 0 117 -6
l-13 66l-459 76l-41 -493h-545q-158 274 -299 383.5t-336 109.5q-185 0 -320 -121zM1089 1108h495l-64 -751z" />
</svg>
