<?xml version="1.0" standalone="no"?>
<!DOCTYPE svg PUBLIC "-//W3C//DTD SVG 1.1//EN" "http://www.w3.org/Graphics/SVG/1.1/DTD/svg11.dtd" >
<svg xmlns="http://www.w3.org/2000/svg" xmlns:xlink="http://www.w3.org/1999/xlink" version="1.1" viewBox="-10 0 1573 2048">
   <path fill="currentColor"
d="M542 1146l-20 38q-126 235 -126 364q0 38 29 74q-24 8 -108 39q-39 14 -74 14q-70 0 -70 -67q0 -139 173 -424l31 -51h-51q-164 0 -254 51q47 -169 253 -169l124 3l27 -40q157 -236 480 -635q109 -135 163 -168t209 -60q-29 180 -29 335q0 411 95 833q52 232 159 299
q-94 93 -161 93q-158 0 -244 -542q-165 18 -333 18zM614 1028l202 5q207 0 317 -14q-46 -351 -46 -582l1 -75q-33 42 -148 182q-208 255 -305 445z" />
</svg>
