<?xml version="1.0" standalone="no"?>
<!DOCTYPE svg PUBLIC "-//W3C//DTD SVG 1.1//EN" "http://www.w3.org/Graphics/SVG/1.1/DTD/svg11.dtd" >
<svg xmlns="http://www.w3.org/2000/svg" xmlns:xlink="http://www.w3.org/1999/xlink" version="1.1" viewBox="-10 0 1374 2048">
   <path fill="currentColor"
d="M666 532l-48 112q-115 270 -169 396h421q-51 -137 -102 -263.5t-102 -244.5zM924 1177h-541q-80 174 -111.5 273t-31.5 170l-1 16q-23 3 -33.5 3.5t-19.5 0.5q-65 0 -99 -26.5t-34 -77.5t194 -441t339 -725q-16 -23 -34.5 -44.5t-39.5 -43.5q37 -46 67.5 -67t61.5 -21
q43 0 83.5 55.5t94.5 188.5q47 115 129 321q278 699 387 803q-38 42 -70 60t-67 18q-101 0 -229 -344q-29 -76 -45 -119z" />
</svg>
