<?xml version="1.0" standalone="no"?>
<!DOCTYPE svg PUBLIC "-//W3C//DTD SVG 1.1//EN" "http://www.w3.org/Graphics/SVG/1.1/DTD/svg11.dtd" >
<svg xmlns="http://www.w3.org/2000/svg" xmlns:xlink="http://www.w3.org/1999/xlink" version="1.1" viewBox="-10 0 2741 2048">
   <path fill="currentColor"
d="M528 1445q-78 111 -78 221q0 115 77 168t183 53q81 0 222 -21q5 -9 117 -128q102 -108 309 -346q-494 17 -830 53zM1670 1209q77 9 217 34.5t304 59.5q-39 -318 -124 -677q-110 199 -397 583zM1368 565q10 -23 26 -48q30 -54 50 -92q339 -107 634 -107q94 0 179 20
q81 19 132 67q50 46 78 138q29 92 45 223l23 180l67 465q40 285 84 442q-318 93 -451 156q0 -113 -32 -614q-187 -12 -254 -12q-72 3 -189.5 9.5t-219.5 12.5q-380 419 -613 555q-235 137 -441 137q-200 0 -328 -100q-129 -99 -129 -207q0 -122 135 -272q133 -148 353 -261
q219 -111 521 -111q72 0 137.5 4t148 13t167.5 21l201 -291q59 -86 236 -393q-118 3 -261.5 20t-298.5 45z" />
</svg>
