<?xml version="1.0" standalone="no"?>
<!DOCTYPE svg PUBLIC "-//W3C//DTD SVG 1.1//EN" "http://www.w3.org/Graphics/SVG/1.1/DTD/svg11.dtd" >
<svg xmlns="http://www.w3.org/2000/svg" xmlns:xlink="http://www.w3.org/1999/xlink" version="1.1" viewBox="-10 0 297 1000">
   <path fill="currentColor"
d="M89 595l-7 103c0 8 3 13 7 13s7 -6 8 -11l2 -35h7v87c-9 0 -20 6 -23 16c-4 -4 -9 -6 -15 -8c-6 -1 -12 -2 -17 -2c-10 0 -20 3 -28 10c-3 -10 -16 -18 -23 -18l6 -83h7v31c0 7 2 11 8 11s7 -7 7 -11l15 -218c4 -51 -4 -67 -11 -78c5 -4 11 -12 11 -20
c0 -7 -4 -15 -10 -21c11 -12 21 -25 26 -90l22 -253c9 -2 15 -8 17 -17c3 3 10 5 17 7c8 2 17 3 23 3c14 0 32 -4 38 -10c3 10 9 15 16 17l21 253c6 78 15 81 27 90c-9 5 -13 14 -13 20c0 7 5 17 13 21c-7 9 -14 35 -11 79l16 216c0 8 3 13 8 13c4 0 7 -7 7 -12v-31h8l9 83
c-8 0 -19 8 -21 18c-4 -4 -12 -6 -19 -8c-8 -1 -16 -2 -23 -2c-14 0 -32 3 -41 10c-3 -10 -19 -17 -29 -17l-2 -82h7l3 32c1 4 3 9 7 9s5 -7 4 -14l-7 -101c-2 -10 -8 -21 -19 -21h-32c-10 0 -16 10 -16 21zM118 213l-5 97c0 20 4 45 9 51c-5 5 -9 11 -9 21c0 9 2 16 8 20
c-8 8 -18 39 -20 65c-1 26 5 34 21 34c18 0 24 -7 22 -34c-2 -29 -12 -55 -18 -65c6 -6 9 -12 8 -20c0 -8 -3 -15 -9 -21c5 -6 6 -39 6 -51l-4 -97c0 -10 -2 -14 -5 -14s-4 4 -4 14z" />
</svg>
