<?xml version="1.0" standalone="no"?>
<!DOCTYPE svg PUBLIC "-//W3C//DTD SVG 1.1//EN" "http://www.w3.org/Graphics/SVG/1.1/DTD/svg11.dtd" >
<svg xmlns="http://www.w3.org/2000/svg" xmlns:xlink="http://www.w3.org/1999/xlink" version="1.1" viewBox="-10 0 399 1000">
   <path fill="currentColor"
d="M344 802q-13 0 -17.5 -7.5t-5.5 -19t-3 -17.5l-5 -24q-1 -11 -5 -26l-31 -127q-2 -7 -8 -9.5t-16 -4.5q-37 -7 -87 -5q-4 0 -20 0.5t-27.5 4.5t-12.5 14q-9 59 -22 111q-8 38 -13 58q-2 6 -7 25t-14 26q-5 3 -9 3q-6 0 -9.5 -5t-2.5 -13q2 -13 7 -26.5t7 -17.5
q8 -22 11 -34q17 -59 25 -95q21 -96 36 -189q16 -98 31 -168l9 -42l17 -70l15 -57q1 -4 4.5 -19t12.5 -19l3 -1q8 0 14 13t9 35.5t4 28.5l9 70l2 25q6 76 12 115q5 45 16 98.5t22 104.5q20 87 37 147q3 11 8 25t7 21q1 5 7 23.5t6 32.5q0 12 -7 14q-3 1 -9 1zM262 536
q4 -1 4 -9q0 -7 -3.5 -18.5t-4.5 -15.5q-1 -7 -5 -21l-7 -35q-11 -49 -19 -113q-3 -22 -7 -75q-6 -80 -12 -117l-3 -17q-1 2 -2 8t-3 14q-8 29 -18.5 72.5t-13.5 60.5l-49 263q0 2 6 2t16 -1.5t13 -1.5l19 -1q8 0 28 2q9 0 27 2q20 2 29 2q4 0 5 -1z" />
</svg>
