<?xml version="1.0" standalone="no"?>
<!DOCTYPE svg PUBLIC "-//W3C//DTD SVG 1.1//EN" "http://www.w3.org/Graphics/SVG/1.1/DTD/svg11.dtd" >
<svg xmlns="http://www.w3.org/2000/svg" xmlns:xlink="http://www.w3.org/1999/xlink" version="1.1" viewBox="-89 0 992 2048">
   <path fill="currentColor"
d="M-29 1248q-3 -11 -3.5 -18t-0.5 -12q0 -33 8 -56.5t24 -39.5q4 -4 20.5 -12t43.5 -19q19 -9 30.5 -21.5t12.5 -30.5q3 -14 12 -32t21 -39q4 -6 24 -69t56 -185q10 -37 20 -64t17 -46q32 -85 52.5 -111.5t30.5 -43.5v-5l-31 -49l39 -45l50 -10q15 -2 27.5 -28t43.5 -57
q7 -2 22.5 -12.5t39.5 -29.5q21 -17 36 -25t23 -8q27 0 39 11t12 29q0 22 -23 64t-23 64q0 10 4.5 16.5t10.5 8.5l120 65q10 4 18 31.5t13 75.5q6 40 9.5 66.5t3.5 42.5q-7 43 -14 87q10 56 22 118q-6 59 -13 120q0 6 2.5 10.5t7.5 5.5q17 1 25.5 9t8.5 22q0 18 -5.5 28.5
t-15.5 16.5q-13 8 -20.5 14t-10.5 10l13 62l-18 142q0 18 -3 46t-9 65q-10 27 -15 45t-5 24q5 17 9 36q-6 27 -12.5 54t-12.5 53q-11 35 -29 51.5t-42 16.5q-13 0 -19.5 -11.5t-6.5 -34.5q0 -10 3.5 -29t3.5 -29q0 -7 -2 -19t-2 -21q0 -28 5.5 -89.5t5.5 -92.5
q-5 -17 -10 -35q3 -19 4 -38.5t-1 -36.5l15 -27l-13 -93l-7 -3q-6 0 -17.5 4.5t-28.5 14.5q-12 4 -37.5 8.5t-67.5 5.5q-18 9 -34 16q-23 5 -58 17.5t-81 30.5q-27 13 -49.5 20.5t-37.5 7.5q-12 0 -20 9t-13 26q-3 16 -14.5 44t-30.5 70q-4 11 -11 34t-16 57q-6 13 -14 32.5
t-18 45.5q0 12 -2.5 29.5t-7.5 40.5q-5 14 -13.5 35.5t-21.5 47.5q-8 16 -23 23.5t-39 7.5q-17 0 -26.5 -11.5t-9.5 -35.5q0 -26 6 -59.5t19 -73.5q14 -53 24 -86t11 -49q3 -7 9 -25t14 -44q9 -25 17 -57l-5 -8l-32 5q-11 -1 -16 -9t-5 -21q0 -7 2 -15.5t6 -20.5zM334 1064
q23 0 68 -11t68 -11q14 3 28 5q25 -5 49 -11.5t49 -11.5q10 -2 15 -7.5t5 -14.5q-2 -30 -2 -41q0 -19 2.5 -42.5t7.5 -48.5l-12 -45l4 -41q-4 -22 -6.5 -41.5t-0.5 -32.5q-2 -4 -7 -13t-11 -19q-10 -17 -20.5 -32.5t-20.5 -31.5q-14 -19 -30 -28t-33 -9q-20 0 -41 32t-39 97
q-3 8 -16.5 33t-38.5 65q-4 38 -27 94.5t-64 132.5q-5 7 -5.5 12t-0.5 11q0 7 3.5 10.5t10.5 3.5q10 0 32.5 -2t32.5 -2z" />
</svg>
