<?xml version="1.0" standalone="no"?>
<!DOCTYPE svg PUBLIC "-//W3C//DTD SVG 1.1//EN" "http://www.w3.org/Graphics/SVG/1.1/DTD/svg11.dtd" >
<svg xmlns="http://www.w3.org/2000/svg" xmlns:xlink="http://www.w3.org/1999/xlink" version="1.1" viewBox="-114 0 1423 2048">
   <path fill="currentColor"
d="M1299 1594l-10 57q-36 3 -63 3q-39 0 -94 -6q-94 -10 -119 -10q-42 0 -129 13q31 -78 52 -164q15 -61 32 -210q-117 -1 -363 5q-254 388 -372.5 487.5t-225.5 99.5q-56 0 -83.5 -21.5t-27.5 -55.5q0 -26 16 -43t40 -17q14 0 38 5q60 14 80 14q67 0 148 -76
q132 -124 390 -520q292 -448 473 -652q-247 22 -308 42q-84 27 -126 80t-42 108q0 18 13 51q14 37 14 54q0 22 -17 39t-41 17q-34 0 -54.5 -25.5t-20.5 -76.5q0 -72 37.5 -139.5t107.5 -113t175 -69.5q54 -13 190 -23q118 -10 148 -19q47 -13 90 -51q-30 123 -43 215
l-78 578l-45 414q74 19 133 19q39 0 85 -9zM977 1203q48 -406 96 -593q-127 168 -157 212l-257 381q83 3 237 3q38 0 81 -3z" />
</svg>
