<?xml version="1.0" standalone="no"?>
<!DOCTYPE svg PUBLIC "-//W3C//DTD SVG 1.1//EN" "http://www.w3.org/Graphics/SVG/1.1/DTD/svg11.dtd" >
<svg xmlns="http://www.w3.org/2000/svg" xmlns:xlink="http://www.w3.org/1999/xlink" version="1.1" viewBox="-10 0 1458 2048">
   <path fill="currentColor"
d="M1093 1649q-21 0 -37 -8t-26.5 -21t-16 -30t-5.5 -34q0 -15 8 -41.5t20.5 -59.5t27.5 -69t29 -69t24 -61t14 -44q4 -18 10 -43t13.5 -54.5t15 -62t15.5 -65.5q-14 3 -34.5 5.5t-43.5 4.5q-33 3 -65 9t-65.5 13.5t-69.5 16t-77 17.5q-60 13 -120 29t-125 16
q-20 0 -37 -10.5t-38 -15.5q-20 32 -38 68.5t-33 75t-27 76t-21 70.5q-5 18 -8.5 46.5t-6.5 58t-6 56.5t-6 43q-3 15 -12 29.5t-22 26.5t-29 19.5t-32 7.5q-28 0 -45.5 -16.5t-28 -41t-14.5 -53.5t-4 -53q0 -61 15 -126.5t40.5 -133t60 -136t74.5 -136.5q33 -61 82 -141
t109.5 -164.5t131 -165.5t146.5 -144.5t156 -102.5t159 -39q83 0 138.5 30t88.5 81t46.5 119t13.5 144q0 67 -8.5 138t-21 139t-27 131t-26.5 114l-35 136q-2 6 -7.5 24t-14 43.5t-19 55t-21 58t-20 52.5t-16.5 39l1 -1q-7 26 -15 53t-22 48.5t-36 35t-57 13.5zM1144 397
q-45 0 -89.5 18.5t-87.5 48.5t-83.5 70t-77 82t-68.5 84.5t-58 78.5q-4 6 -10.5 15.5t-13 21t-12.5 24t-10 22.5h103q56 0 128 -8t142.5 -19t129.5 -22.5t89 -17.5q4 -13 7.5 -35t6.5 -49t4.5 -57.5t1.5 -62.5q0 -26 -2 -59.5t-12 -63.5t-30.5 -50.5t-57.5 -20.5z" />
</svg>
