<?xml version="1.0" standalone="no"?>
<!DOCTYPE svg PUBLIC "-//W3C//DTD SVG 1.1//EN" "http://www.w3.org/Graphics/SVG/1.1/DTD/svg11.dtd" >
<svg xmlns="http://www.w3.org/2000/svg" xmlns:xlink="http://www.w3.org/1999/xlink" version="1.1" viewBox="-28 0 457 1000">
   <path fill="currentColor"
d="M204 63h1c17 0 33 0 46 1c3 0 5 1 6 4c24 132 83 418 118 576c2 10 6 17 12 18l26 8c4 1 6 6 6 10c0 1 0 2 -3 2c-20 -1 -46 -2 -66 -2c-33 0 -61 1 -88 2c-2 0 -2 -1 -2 -2c0 -3 1 -9 5 -10l41 -8c7 -1 10 -6 8 -14c-13 -51 -35 -140 -48 -189c-35 1 -122 3 -157 5
c-5 0 -8 4 -9 10c-8 44 -23 121 -30 172c-2 13 2 15 8 16l41 8c3 1 6 5 6 10c0 2 -1 2 -3 2c-20 -1 -47 -2 -76 -2c-25 0 -47 1 -62 2c-2 0 -2 -1 -2 -3c0 -3 1 -8 4 -9l22 -6c8 -3 12 -6 16 -18c36 -133 109 -423 147 -560c4 -16 14 -23 33 -23zM186 116h-2
c-3 14 -6 28 -8 36c-20 84 -49 208 -65 276c-1 6 0 8 4 9c36 3 112 7 147 6c-12 -54 -47 -204 -67 -289c-2 -11 -5 -24 -9 -38z" />
</svg>
