<?xml version="1.0" standalone="no"?>
<!DOCTYPE svg PUBLIC "-//W3C//DTD SVG 1.1//EN" "http://www.w3.org/Graphics/SVG/1.1/DTD/svg11.dtd" >
<svg xmlns="http://www.w3.org/2000/svg" xmlns:xlink="http://www.w3.org/1999/xlink" version="1.1" viewBox="-10 0 1503 2048">
   <path fill="currentColor"
d="M1389 123l19 46q-72 35 -106.5 69.5t-48.5 77t-14 126.5q0 27 1 72l17 747q2 123 26 161q17 27 41 27q29 0 90 -58l29 37l-186 159l-62 51q-79 -37 -112.5 -98t-37.5 -195l-387 293q-323 -213 -440 -213q-29 0 -49 18q-15 13 -15 37q0 26 19 57q25 42 25 55
q0 19 -14 32.5t-34 13.5q-25 0 -40 -20q-22 -27 -22 -70q0 -48 27.5 -107.5t81.5 -129.5q11 -15 20 -28l143 -195q-145 -109 -203.5 -209t-58.5 -224q0 -144 73.5 -267t221 -194t303.5 -71q239 0 461 166q54 -57 104 -93.5t128 -72.5zM897 355q-126 -62 -251 -62
q-133 0 -250 58.5t-175 151t-58 189.5q0 205 222 363l334 -457q-75 -41 -135 -41q-83 0 -136 78q-10 16 -20 16q-6 0 -11.5 -6t-5.5 -15q0 -31 31.5 -86t93 -89t129.5 -34q70 0 159 34zM1026 458q-29 -32 -39 -41q-7 -7 -50 -37l-437 596h538zM392 1122l-90 125l508 219
l236 -174l-4 -170h-650z" />
</svg>
