<?xml version="1.0" standalone="no"?>
<!DOCTYPE svg PUBLIC "-//W3C//DTD SVG 1.1//EN" "http://www.w3.org/Graphics/SVG/1.1/DTD/svg11.dtd" >
<svg xmlns="http://www.w3.org/2000/svg" xmlns:xlink="http://www.w3.org/1999/xlink" version="1.1" viewBox="-10 0 637 2048">
   <path fill="currentColor"
d="M263 155h111l178 1457h45q11 7 11 13t-11 13h-301q-5 0 -8 -3.5t-3 -9.5t3 -9.5t8 -3.5h48l-26 -284h-181l-22 161q-1 13 -1 27q0 44 16.5 66.5t45.5 27.5l16 5q4 4 4 10t-3.5 9.5t-8.5 3.5h-171q-5 0 -8.5 -3.5t-3.5 -9.5t3 -10l12 -4q29 -4 45 -26q24 -35 34 -116z
M238 528l-98 774h175z" />
</svg>
