<?xml version="1.0" standalone="no"?>
<!DOCTYPE svg PUBLIC "-//W3C//DTD SVG 1.1//EN" "http://www.w3.org/Graphics/SVG/1.1/DTD/svg11.dtd" >
<svg xmlns="http://www.w3.org/2000/svg" xmlns:xlink="http://www.w3.org/1999/xlink" version="1.1" viewBox="-10 0 1982 2048">
   <path fill="currentColor"
d="M1022 1189q-19 -104 -89 -189t-173 -85q-74 0 -113.5 41.5t-52 87.5t-12.5 72q0 95 33 166t112 153q106 -82 295 -246zM1036 1177q201 -177 324 -280.5t232.5 -184.5t195 -126t164.5 -62l10 8l-29 27q-132 124 -235.5 231t-221 239.5t-219 258.5t-213.5 276
q47 0 110 -29.5t127.5 -78t117.5 -101.5v17q-60 64 -165.5 135.5t-197.5 71.5l-41 59h-92l53 -70q-73 -14 -121.5 -39t-107.5 -73q-87 56 -161 97.5t-157 71t-165 29.5q-83 0 -129.5 -31t-46.5 -85q0 -37 23 -65t56 -28q21 0 32 11t11 22q0 31 -38 31q-31 0 -37 -33
q-31 26 -31 66q0 46 41 72t117 26q78 0 160.5 -29t156.5 -71t154 -95q-78 -86 -112 -156t-34 -157q0 -92 48 -161.5t143 -69.5q105 0 176.5 76.5t101.5 199.5zM1565 895l26 -29q42 -45 163.5 -161.5t162.5 -153.5q-78 15 -202 95t-250 181.5t-234.5 197.5t-188.5 167
q12 91 2.5 163t-43.5 156q39 -49 97 -113t96 -104.5t122.5 -131t248.5 -267.5zM1026 1204q-41 38 -129 112t-158 129q61 49 111 74.5t117 36.5q44 -94 57 -177t2 -175z" />
</svg>
