<?xml version="1.0" standalone="no"?>
<!DOCTYPE svg PUBLIC "-//W3C//DTD SVG 1.1//EN" "http://www.w3.org/Graphics/SVG/1.1/DTD/svg11.dtd" >
<svg xmlns="http://www.w3.org/2000/svg" xmlns:xlink="http://www.w3.org/1999/xlink" version="1.1" viewBox="-10 0 2019 2048">
   <path fill="currentColor"
d="M0 1912q7 -13 9 -15l29 -18q11 -8 40 -48q3 -4 23 -19q11 -8 19 -23q-1 -9 -1 -16q0 -21 27 -45q38 -36 46 -48l55 -100q1 -1 19 -6l4 -4q-1 -11 -1 -19q0 -12 2 -15l25 -33l99 -154l2 -10q-8 -6 -12 -6q-2 0 -11 2q-4 1 -10 1q-8 0 -19 -1q-6 -19 -6 -28q0 -5 13 -23
q8 -26 17 -40q15 -21 24 -34q20 0 28 3l44 15l3 -2q3 -11 3 -16q0 -8 -5 -23q18 -12 20 -17l20 -38q7 -14 39 -43q3 -24 6.5 -29t38.5 -36q3 -4 23 -54q6 -13 55 -86l66 -128l27 -29q2 -18 4 -21t28 -41q2 -3 2 -7q0 -7 -2 -16q9 -8 19 -28q9 -19 19 -34l20 29q5 -12 5 -17
q0 -8 -8 -24q10 -24 15 -30q19 -28 19 -33q1 -1 1 -22q0 -3 11 -22q4 -6 20 -49q2 -6 11 -27l43 -4l-4 -13l-26 -12v-16q15 -12 22 -27l-11 -10v-4q15 -14 29 -39q13 -24 23 -40q-8 -14 -8 -23v-7v-10v-21l81 -56l19 14q10 -19 12 -25q7 -17 14 -17t16 4q5 -21 20 -31
q20 -15 36 -15q30 0 33 73q11 48 12 66q4 31 26 70q13 52 13 68v24l-40 21q9 20 17 25q5 2 45 14q19 6 40 59q15 37 15 45q0 6 -12 25q16 16 21 20q25 22 27 27l12 31l20 50q3 6 5 33q31 32 35 66q3 27 3 28l22 34l42 84l-23 14q6 19 16 28l15 3l-3 22q102 97 105 189
q4 22 43 93q54 102 60 119q8 22 22 43l62 137l-2 29q60 32 60 61q0 14 -29 28q8 17 16 21q2 2 20 8q14 5 30 37q8 15 26 72q43 66 54 86q-19 15 -19 32q0 6 1 15q-34 15 -48 18q-5 2 -35 3q-14 1 -70 24q-26 -59 -31 -84q-4 -21 -19 -45q-27 -74 -27 -83q0 -7 1 -16
q-18 -17 -21 -30q-1 -3 -2 -31q-2 -11 -2 -15q0 -12 10 -33l-30 -27q12 -15 17 -20q10 -8 10 -14t-2 -14l-48 4q-24 -32 -33 -51q-5 -12 -16 -63l-15 -35q-12 -64 -18 -76q-17 -36 -56 -36q-35 0 -39 75q-8 3 -10 3q-11 0 -28 -14q-29 -20 -60 -26q-15 -2 -42 -15
q-36 -17 -58 -17q-9 0 -55 10l-29 -5l-32 3h-27l-27 4l-47 1q-30 1 -40 1l-15 1l-62 -14l-30 6q-32 -9 -35 -9q-6 0 -48 11q-31 7 -55 9l-28 -32q-32 6 -64 23q-3 2 -44 8q-15 2 -16 2q-12 0 -30 -3q-25 -5 -44 -5q-14 0 -50 9q-21 6 -44 8q-11 18 -14 24q-15 31 -39 60
q-17 27 -47 79l-18 -4q-8 8 -8 15q0 6 3 21q1 6 2 17q-19 22 -21 27l-48 97q-13 21 -28 46l-9 14l-55 35q-4 3 -4 11q0 11 23 30l-15 47q-24 9 -33 16q-14 10 -29 44q-29 12 -37 18q-14 10 -21 10q-3 0 -20 -10q-4 -3 -13 -3q-6 0 -14 1q-19 -19 -42 -26zM552 1220
q22 -12 27 -12q7 0 21 13l31 -4l12 21q21 -7 57 -7h89q25 1 67 15q44 3 65 7q21 31 49 31l63 -31v0l34 7h57l22 6l29 -4l27 3l27 -2l25 7l59 -10l46 -3l89 -9l74 6q16 0 16 -12q0 -5 -9 -34q-2 -8 -3 -24q-19 -13 -28 -30q-35 -71 -40 -71q-10 -14 -15 -33q-4 -17 -16 -36
q5 -26 5 -44q0 -10 -8 -33l-35 5q-11 -23 -13 -30l-7 -25l-22 -31l-25 -44l-11 -19q-7 -41 -26 -74q-14 -25 -13 -44l20 -9q-10 -16 -25 -16q-6 0 -14 1q-10 -21 -14 -27q-23 -34 -24 -37l-6 -39l-15 -26l-15 -35l-33 -41l-18 -58l-17 -30q-13 -27 -29 -50q-25 15 -34 32
q-17 33 -16 60h-6q-17 29 -44 67l-58 110q-16 28 -21 48q-18 11 -23 28q-19 43 -54 55l5 28l-15 7h-1q-19 -2 -33 -3l-8 13l26 16q-12 39 -35 79q-47 90 -89 116q-10 6 -12 32q-1 19 -9 36l-27 50l-23 25l-12 28q-23 37 -28 50q-6 18 -13 35z" />
</svg>
