<?xml version="1.0" standalone="no"?>
<!DOCTYPE svg PUBLIC "-//W3C//DTD SVG 1.1//EN" "http://www.w3.org/Graphics/SVG/1.1/DTD/svg11.dtd" >
<svg xmlns="http://www.w3.org/2000/svg" xmlns:xlink="http://www.w3.org/1999/xlink" version="1.1" viewBox="-30 0 1543 2048">
   <path fill="currentColor"
d="M731 557q-20 -46 -30 -46q-12 0 -36 64l-214 489l-185 412q-8 19 -8 33q0 15 11.5 27t54.5 24t54 24t11 27q0 46 -60 46q-14 0 -68.5 -8.5t-90.5 -8.5q-37 0 -76 8t-57 8q-25 0 -41 -13.5t-16 -31.5q0 -26 10 -34t37 -12q78 -13 107.5 -58.5t151.5 -322.5l242 -540
q89 -194 114.5 -257.5t25.5 -98.5q0 -12 -8.5 -43.5t-8.5 -45.5q0 -29 31 -29q51 0 82 43t83 162l277 626q151 342 191 423t65.5 104.5t61 34.5t48.5 21.5t13 35.5q0 34 -63 34q-21 0 -76.5 -6t-110.5 -6t-114.5 7t-81.5 7q-34 0 -54 -11.5t-20 -31.5q0 -17 12 -28t64.5 -16
t68 -22.5t15.5 -43.5q0 -28 -57 -154.5t-71 -134.5t-54 -8h-447q-26 0 -47 -16.5t-21 -38.5q0 -17 16.5 -30t37.5 -13h430q36 0 36 -13q0 -8 -14 -39z" />
</svg>
