<?xml version="1.0" standalone="no"?>
<!DOCTYPE svg PUBLIC "-//W3C//DTD SVG 1.1//EN" "http://www.w3.org/Graphics/SVG/1.1/DTD/svg11.dtd" >
<svg xmlns="http://www.w3.org/2000/svg" xmlns:xlink="http://www.w3.org/1999/xlink" version="1.1" viewBox="-11 0 513 1000">
   <path fill="currentColor"
d="M146 15h195c7 0 12 6 13 13l137 715c2 11 -3 22 -14 22h-162c-6 0 -12 -4 -13 -10l-20 -150c-1 -5 -5 -8 -10 -8h-54c-4 0 -8 4 -9 10l-19 147c-1 7 -8 11 -13 11h-165c-9 0 -14 -7 -12 -17l134 -721c1 -5 6 -12 12 -12zM266 488l-13 -96c-2 -14 -4 -23 -7 -23
s-5 7 -7 23l-13 95c-1 5 1 10 6 10c32 0 35 0 34 -9z" />
</svg>
