<?xml version="1.0" standalone="no"?>
<!DOCTYPE svg PUBLIC "-//W3C//DTD SVG 1.1//EN" "http://www.w3.org/Graphics/SVG/1.1/DTD/svg11.dtd" >
<svg xmlns="http://www.w3.org/2000/svg" xmlns:xlink="http://www.w3.org/1999/xlink" version="1.1" viewBox="-10 0 1321 2048">
   <path fill="currentColor"
d="M1280 327q-62 89 -117 477q-48 343 -45 535q4 192 63 192q11 0 31.5 -8t31.5 -8q20 0 20 15q0 11 -15 24q-50 44 -153 98q-25 13 -43 13q-98 0 -70 -496q-240 14 -453 39l-198 242q53 -6 40 -6q48 0 74 98q7 23 7 36q0 24 -21 24q-10 0 -29.5 -5t-30.5 -5q-85 0 -229 91
l-43 27q-8 0 -30 -15q-47 -32 -66 -77q-12 -31 35 -62q62 -40 170 -135t141 -137q-9 -91 -9 -95q2 -57 43 -74q36 -15 128 -20q248 -302 399 -590q-49 26 -176 67q-203 66 -280 93q-109 39 -109 136q0 20 4 44q6 37 -19 37q-18 0 -26 -16q-55 -115 -65 -162q-9 -42 -9 -44
q0 -35 33 -64q60 -51 228 -76q252 -38 434 -119q22 -22 24 -25q5 -7 10.5 -27t19.5 -20q23 0 69 49q15 17 15 34q0 10 -34 69q-74 131 -198 317q-138 208 -214 295q238 0 373 -12q14 -140 61 -399l48 -254q15 -108 145 -158q20 -8 33 -8q22 0 22 19q0 18 -20 46z" />
</svg>
