<?xml version="1.0" standalone="no"?>
<!DOCTYPE svg PUBLIC "-//W3C//DTD SVG 1.1//EN" "http://www.w3.org/Graphics/SVG/1.1/DTD/svg11.dtd" >
<svg xmlns="http://www.w3.org/2000/svg" xmlns:xlink="http://www.w3.org/1999/xlink" version="1.1" viewBox="-76 0 2017 2048">
   <path fill="currentColor"
d="M1931 1464q-32 59 -100 178q-164 -8 -229 -8q-225 0 -492 45q25 -172 25 -340q0 -185 -31 -289q-165 -16 -514 -55q-33 117 -76 235q-49 135 -106 230q59 14 305 26q-19 129 -19 236q-227 -76 -424 -125q-131 -33 -336 -70q28 -36 68 -92l53 -73q36 15 115 51
q151 -208 272 -604q128 -415 138 -682q149 -18 276 -45q131 -29 283 -80q148 241 325 727q81 235 215 622q19 52 111 81q71 16 141 32zM1167 569q0 -137 -186 -137q-135 0 -244 72q-114 75 -114 173q0 130 223 130q321 0 321 -238z" />
</svg>
