<?xml version="1.0" standalone="no"?>
<!DOCTYPE svg PUBLIC "-//W3C//DTD SVG 1.1//EN" "http://www.w3.org/Graphics/SVG/1.1/DTD/svg11.dtd" >
<svg xmlns="http://www.w3.org/2000/svg" xmlns:xlink="http://www.w3.org/1999/xlink" version="1.1" viewBox="-10 0 1327 2048">
   <path fill="currentColor"
d="M268 1060l2 -22v-8l9 -27q20 -61 42.5 -90t24.5 -41t15.5 -26.5t19.5 -26.5l8 -12q0 -18 22.5 -39.5t25 -33.5t30.5 -44q0 -9 20.5 -32.5t26.5 -33.5t25 -18q4 -21 20 -35t24.5 -24.5t20.5 -16.5l10 -12q7 -10 33.5 -30t34.5 -30l25 -10l4 -4l2 -12q4 -2 14 -13.5
t18 -17.5l27 -27q16 -10 27.5 -16t14.5 -15.5t36 -19.5q18 -24 51 -28q12 -21 72 -46.5t84 -25.5q22 0 41 6l16 -2q4 2 19 8h2l8 2q35 40 35 85q0 21 -2 50q-11 35 -11 56q0 14 -10 34l-8 27q-6 59 -41 59q-55 0 -55 -51q0 -33 28 -55q49 -31 49 -100q0 -19 -16 -19h-2
q-10 6 -16 6l-19 -6h-2l-8 4q-2 -2 -14.5 6.5t-34 15.5t-43 30.5t-48 34t-46.5 38.5q0 2 -2 2l-21 -2q-4 0 -14 25l-6 4h-7q-4 2 -14 12l-12 10q-6 19 -23 27l-12 21q-8 4 -18.5 12t-17.5 11t-14 22.5t-46 33.5q-4 4 -4 7q0 2 2 8v2q0 20 -52 61v4q0 11 -17 41.5t-29.5 42
t-12.5 15.5v14q0 16 -14 20q-13 11 -19 17q0 20 -17 30.5t-20 16.5l7 12v4q0 29 -29 37v4q0 10 -14.5 29.5t-26.5 26.5q-2 0 -4 4l4 28q-26 55 -51 86q-10 2 -10 9l4 16v4q0 25 -8.5 35t-8.5 12l6 14q0 9 -8 13t-8 8q0 2 2 6v6q0 8 -14 56v14l-4 14q0 2 5 12.5t5 18.5l-6 14
q-2 2 -2 6q0 19 8.5 48.5t28.5 29.5q34 0 41.5 -8t43 -35.5t47 -39t18 -14.5t54.5 -62.5t84 -106.5q2 -2 5.5 -13.5t22 -29t54.5 -68.5l19 -18q22 -31 25.5 -38.5t14.5 -15t17 -20t17.5 -14.5t11.5 -10l-2 -21q14 -22 32 -29q-2 -4 -2 -12q0 -24 20.5 -30.5t21.5 -13.5
t5 -17l3 -8q8 -17 16 -25l12 -18l21 -21q0 -2 2 -4l-4 -23q0 -6 26 -16l2 -4v-18q0 -9 19 -19q5 -21 20 -29q2 -26 18.5 -44.5t29 -37t36.5 -18.5q13 0 46.5 18.5t33.5 53.5q0 4 -10 24t-19 80q-21 56 -28 66q6 14 6 22q0 13 -17 31q-3 19 -8 31v16q0 19 -28 27
q-3 0 -8 24.5t-5 26.5l4 27q0 14 -8 22t-21.5 27.5t-13.5 23.5q0 17 -4 27t-5 21.5t-9 21.5t-10 16q6 13 6 15q0 6 -6 24q-11 10 -11 17q0 1 7 14q-2 12 -11 33l-2 6l4 57q0 2 -8 12v5q0 10 6 10q4 0 31 -15.5t30 -21.5q9 -18 83 -59l130 -110q13 -13 19 -13q17 0 17 16
q0 23 -11 53v15q0 26 -28 49q-2 8 -13.5 13t-16.5 14.5t-22.5 17.5t-27.5 18l-8 4q-15 7 -20 22t-11 15q-23 0 -62 39l-12 4l-12 8q-10 9 -16 9l-15 -2l-53 10q-12 0 -23 -19h-16l-14 -16q-24 -8 -43 -54.5t-19 -80.5q0 -21 9.5 -65t9.5 -65q0 -22 8 -43.5t8 -35.5
q0 -4 8 -27.5t8 -48.5q0 -2 -4 -2q-52 76 -70 86q-7 4 -16 14q11 17 11 19q0 16 -39 55l-11 23q-6 6 -8 6l-22 -2l-6 8l6 20q-11 23 -27 27l-4 4l-2 10l-10 7q-2 0 -2 2l4 20q-4 6 -11.5 11.5t-14.5 25.5t-23 20l-9 -4h-2l-2 19l2 8q0 8 -16 18l-10 11q0 12 -22.5 34.5
t-33.5 40.5q-17 9 -36 33q-33 28 -39.5 35.5t-24.5 9.5q-13 14 -34 17.5t-36.5 9.5t-19.5 6q-37 0 -74 -29q-25 -1 -35 -18l-43 -39q-41 -61 -41 -131q0 -14 4.5 -24.5t4.5 -14.5t-5.5 -9t-5.5 -9q0 -9 17 -19q-12 -12 -12 -22q0 -9 8 -23t12 -14t14 10q0 2 2 2q4 0 4 -4
q0 -10 -11 -16t-13 -23q-4 -4 -4 -6l18 -76q7 -30 33 -55z" />
</svg>
