<?xml version="1.0" standalone="no"?>
<!DOCTYPE svg PUBLIC "-//W3C//DTD SVG 1.1//EN" "http://www.w3.org/Graphics/SVG/1.1/DTD/svg11.dtd" >
<svg xmlns="http://www.w3.org/2000/svg" xmlns:xlink="http://www.w3.org/1999/xlink" version="1.1" viewBox="-10 0 657 1000">
   <path fill="currentColor"
d="M368 321h3c0 -35 4 -55 10 -70c-18 -24 -33 -60 -60 -135c9 75 8 111 3 135c15 15 29 35 44 70zM192 322l77 -287h63l75 287c-12 -8 -24 -8 -36 0c6 13 22 34 39 49c-5 41 -7 83 5 164c-26 -81 -42 -118 -69 -164c10 -15 21 -36 22 -49c-15 -8 -28 -8 -36 0l-43 -199h-2
l-54 199c-12 -8 -26 -8 -41 0zM321 355h-79l42 -153h4zM240 0h114l112 117l107 412c9 32 32 78 64 98v123h-259l-26 -35v35h-254l-69 -92v-82l26 -8c25 -8 43 -41 66 -125zM219 444h121l7 30c16 76 4 102 -22 110l-26 7v57h246v-57l-28 -11c-17 -6 -34 -35 -52 -105
l-118 -457h-93l-115 425c-28 103 -45 133 -70 141l-22 7v57h212v-57l-26 -7c-22 -8 -37 -51 -22 -110z" />
</svg>
