<?xml version="1.0" standalone="no"?>
<!DOCTYPE svg PUBLIC "-//W3C//DTD SVG 1.1//EN" "http://www.w3.org/Graphics/SVG/1.1/DTD/svg11.dtd" >
<svg xmlns="http://www.w3.org/2000/svg" xmlns:xlink="http://www.w3.org/1999/xlink" version="1.1" viewBox="-20 0 1612 2048">
   <path fill="currentColor"
d="M968 207q9 7 9 49q0 43 -9 65l13 42q33 118 65 194q40 102 79 219q89 269 185.5 460.5t176.5 269.5q50 49 62.5 67.5t12.5 43.5q0 44 -29.5 74.5t-70.5 30.5q-128 0 -310 -403q-73 -159 -88 -159q-48 0 -206.5 29t-289.5 68q-75 23 -95 23q-25 0 -52 -25q-5 -4 -12 -4
q-22 0 -95 130q-120 215 -151.5 256.5t-69.5 41.5q-27 0 -65 -31.5t-38 -64.5q0 -32 36 -86.5t147 -219.5q198 -293 334 -550q215 -409 273 -482.5t89 -73.5q66 0 99 36zM1029 1002q-35 -80 -103 -293q-74 -227 -94 -276q-55 116 -170 329l-181 343q21 -16 111 -26
q69 -7 120 -18q273 -55 317 -59z" />
</svg>
