<?xml version="1.0" standalone="no"?>
<!DOCTYPE svg PUBLIC "-//W3C//DTD SVG 1.1//EN" "http://www.w3.org/Graphics/SVG/1.1/DTD/svg11.dtd" >
<svg xmlns="http://www.w3.org/2000/svg" xmlns:xlink="http://www.w3.org/1999/xlink" version="1.1" viewBox="-26 0 1300 2048">
   <path fill="currentColor"
d="M1264 1633h-547l-37 -133q-23 9 -115 61q-59 38 -131 101l-57 -121q-17 -36 -49 -101l-54 193h-290q64 -247 198 -815q82 -380 137 -721h601q28 157 153 731q69 300 191 805zM633 1305q-17 -53 -60 -172q-26 -66 -79 -182q-23 58 -72 190q-27 76 -64 207q30 0 136 -12
q64 -9 139 -31z" />
</svg>
