<?xml version="1.0" standalone="no"?>
<!DOCTYPE svg PUBLIC "-//W3C//DTD SVG 1.1//EN" "http://www.w3.org/Graphics/SVG/1.1/DTD/svg11.dtd" >
<svg xmlns="http://www.w3.org/2000/svg" xmlns:xlink="http://www.w3.org/1999/xlink" version="1.1" viewBox="-18 0 715 1000">
   <path fill="currentColor"
d="M221 140l26 113l-94 342c-16 61 -2 78 32 93c16 7 30 13 30 33c0 28 -32 27 -52 27h-115c-20 0 -56 -1 -56 -30c0 -24 17 -23 39 -34c21 -11 48 -34 67 -105l120 -439h3zM374 631l-20 -77h-146l14 -58h122l-101 -442l13 -54h221l150 632c6 28 7 47 35 59
c14 6 25 13 25 31c0 27 -36 26 -55 26h-249c-20 0 -49 -2 -49 -28c0 -16 6 -21 19 -28c26 -15 30 -22 21 -61z" />
</svg>
