<?xml version="1.0" standalone="no"?>
<!DOCTYPE svg PUBLIC "-//W3C//DTD SVG 1.1//EN" "http://www.w3.org/Graphics/SVG/1.1/DTD/svg11.dtd" >
<svg xmlns="http://www.w3.org/2000/svg" xmlns:xlink="http://www.w3.org/1999/xlink" version="1.1" viewBox="-10 0 1464 2048">
   <path fill="currentColor"
d="M698 536q-4 -6 -8 -6q-6 0 -8 6l-193 490q-6 14 9 14h370q16 0 11 -14zM897 1638q-10 0 -10 -10v-53q0 -11 10 -11l160 -16q6 0 8 -4t0 -10l-152 -402q-4 -6 -8 -6h-446q-5 1 -8 6l-162 406q-5 13 10 14l154 12q10 1 10 11v53q0 10 -10 10h-443q-10 0 -10 -10v-53
q0 -11 10 -11l168 -16q5 -1 8 -6l521 -1311q4 -6 8 -6h51q5 1 8 6l479 1309q2 6 9 6l163 18q9 0 9 11v53q0 10 -11 10h-526z" />
</svg>
