<?xml version="1.0" standalone="no"?>
<!DOCTYPE svg PUBLIC "-//W3C//DTD SVG 1.1//EN" "http://www.w3.org/Graphics/SVG/1.1/DTD/svg11.dtd" >
<svg xmlns="http://www.w3.org/2000/svg" xmlns:xlink="http://www.w3.org/1999/xlink" version="1.1" viewBox="-30 0 1572 2048">
   <path fill="currentColor"
d="M909 252q80 276 504 1187q57 85 57 144q0 14 -9.5 25t-70 29t-79.5 26q-15 -18 -15 -35q0 -15 4 -34l5 -15q0 -33 -32.5 -136t-111.5 -262q-8 -4 -16.5 -22.5t-42.5 -18.5q-19 0 -37 19q-3 -8 -42 -15l-30 -8h-30q-102 0 -141.5 11.5t-41.5 11.5q-14 0 -22 -15
q-62 17 -91.5 13t-58.5 -4q-66 0 -122.5 15.5t-73 16t-31.5 25.5l-14 -10q-102 211 -152 332q-6 75 -31.5 127.5t-46.5 52.5h-2q-34 -14 -139 -33q-16 -3 -16 -18q0 -33 35 -61.5t40 -43.5q33 -62 60 -86q36 -43 90.5 -141.5t89.5 -132.5q1 -44 95.5 -189t163.5 -272
t77 -137q139 -199 139 -271v-4q23 0 23 -10v-10q0 -37 49 -80l14 6q26 -33 41 -33q18 0 18 27q0 16 -6 29zM958 1073q28 -8 58 -8q69 -13 69 -39q0 -2 -116 -296t-152 -294q-25 0 -97.5 139t-162.5 285.5t-90 179.5q0 23 30 31t35 8l19 -2q17 0 46 5t40 5q24 0 78.5 -8
t68.5 -8t34 4t26 4q14 0 20 -14q25 8 45 8l31 -2q11 0 18 2z" />
</svg>
