<?xml version="1.0" standalone="no"?>
<!DOCTYPE svg PUBLIC "-//W3C//DTD SVG 1.1//EN" "http://www.w3.org/Graphics/SVG/1.1/DTD/svg11.dtd" >
<svg xmlns="http://www.w3.org/2000/svg" xmlns:xlink="http://www.w3.org/1999/xlink" version="1.1" viewBox="-37 0 782 1000">
   <path fill="currentColor"
d="M95 643l227 -621c12 -33 16 -39 22 -39s10 5 22 36c15 38 172 451 233 603c36 89 65 105 86 111c15 5 30 6 40 6c6 0 10 1 10 6c0 6 -9 8 -20 8c-15 0 -88 0 -157 -2c-19 -1 -30 -1 -30 -7c0 -4 3 -6 7 -7c6 -2 12 -11 6 -27l-93 -246c-2 -4 -4 -6 -9 -6h-215
c-5 0 -8 3 -10 8l-60 177c-9 25 -14 49 -14 67c0 20 21 29 38 29h10c7 0 10 2 10 6c0 6 -6 8 -15 8c-24 0 -67 -3 -78 -3s-66 3 -113 3c-13 0 -19 -2 -19 -8c0 -4 4 -6 9 -6c7 0 21 -1 29 -2c46 -6 66 -44 84 -94zM235 422h191c5 0 5 -3 4 -7l-95 -270c-5 -15 -10 -15 -15 0
l-88 270c-2 5 0 7 3 7z" />
</svg>
